<svg width="1164" height="113" viewBox="0 0 1164 113" fill="none" xmlns="http://www.w3.org/2000/svg">
<path d="M15.0588 90.3529C15.0588 90.3529 15.0588 89.9765 15.0588 89.2235V86.5882V83.9686V82.8235H16.1882H18.8235H21.4431H22.5882C22.5882 82.8235 22.5882 83.2052 22.5882 83.9686V86.5882V89.2235V90.3529C22.5882 90.3529 22.2065 90.3529 21.4431 90.3529H18.8235H16.1882H15.0588ZM45.1765 90.3529C45.1765 90.3529 45.1765 89.9765 45.1765 89.2235V86.5882V83.9686V82.8235H46.3059H48.9412H51.5608H52.7059C52.7059 82.8235 52.7059 83.2052 52.7059 83.9686V86.5882V89.2235V90.3529C52.7059 90.3529 52.3242 90.3529 51.5608 90.3529H48.9412H46.3059H45.1765ZM11.2941 82.8235C11.2941 82.8235 11.2941 82.4471 11.2941 81.6941V79.0588V76.4392V75.2941H12.4235H15.0588H17.6784H18.8235C18.8235 75.2941 18.8235 75.6758 18.8235 76.4392V75.2941H19.9529H22.5882H25.2078H26.3529C26.3529 75.2941 26.3529 75.6758 26.3529 76.4392V79.0588V81.6941V82.8235C26.3529 82.8235 25.9712 82.8235 25.2078 82.8235H22.5882H19.9529H18.8235C18.8235 82.8235 18.8235 82.4471 18.8235 81.6941V82.8235C18.8235 82.8235 18.4418 82.8235 17.6784 82.8235H15.0588H12.4235H11.2941ZM41.4118 82.8235C41.4118 82.8235 41.4118 82.4471 41.4118 81.6941V79.0588V76.4392V75.2941H42.5412H45.1765H47.7961H48.9412C48.9412 75.2941 48.9412 75.6758 48.9412 76.4392V75.2941H50.0706H52.7059H55.3255H56.4706C56.4706 75.2941 56.4706 75.6758 56.4706 76.4392V79.0588V81.6941V82.8235C56.4706 82.8235 56.0889 82.8235 55.3255 82.8235H52.7059H50.0706H48.9412C48.9412 82.8235 48.9412 82.4471 48.9412 81.6941V82.8235C48.9412 82.8235 48.5595 82.8235 47.7961 82.8235H45.1765H42.5412H41.4118ZM7.52941 75.2941C7.52941 75.2941 7.52941 74.9176 7.52941 74.1647V71.5294V68.9098V67.7647H8.65882H11.2941H13.9137H15.0588C15.0588 67.7647 15.0588 68.1464 15.0588 68.9098V71.5294V74.1647V75.2941C15.0588 75.2941 14.6771 75.2941 13.9137 75.2941H11.2941H8.65882H7.52941ZM22.5882 75.2941C22.5882 75.2941 22.5882 74.9176 22.5882 74.1647V71.5294V68.9098V67.7647H23.7176H26.3529H28.9725H30.1176C30.1176 67.7647 30.1176 68.1464 30.1176 68.9098V71.5294V74.1647V75.2941C30.1176 75.2941 29.7359 75.2941 28.9725 75.2941H26.3529H23.7176H22.5882ZM37.6471 75.2941C37.6471 75.2941 37.6471 74.9176 37.6471 74.1647V71.5294V68.9098V67.7647H38.7765H41.4118H44.0314H45.1765C45.1765 67.7647 45.1765 68.1464 45.1765 68.9098V71.5294V74.1647V75.2941C45.1765 75.2941 44.7948 75.2941 44.0314 75.2941H41.4118H38.7765H37.6471ZM52.7059 75.2941C52.7059 75.2941 52.7059 74.9176 52.7059 74.1647V71.5294V68.9098V67.7647H53.8353H56.4706H59.0902H60.2353C60.2353 67.7647 60.2353 68.1464 60.2353 68.9098V71.5294V74.1647V75.2941C60.2353 75.2941 59.8536 75.2941 59.0902 75.2941H56.4706H53.8353H52.7059ZM3.7647 67.7647C3.7647 67.7647 3.7647 67.3882 3.7647 66.6353V64V61.3804V60.2353H4.89411H7.52941H10.149H11.2941C11.2941 60.2353 11.2941 60.617 11.2941 61.3804V64V66.6353V67.7647C11.2941 67.7647 10.9124 67.7647 10.149 67.7647H7.52941H4.89411H3.7647ZM26.3529 67.7647C26.3529 67.7647 26.3529 67.3882 26.3529 66.6353V64V61.3804V60.2353H27.4824H30.1176H32.7373H33.8824C33.8824 60.2353 33.8824 60.617 33.8824 61.3804V60.2353H35.0118H37.6471H40.2667H41.4118C41.4118 60.2353 41.4118 60.617 41.4118 61.3804V64V66.6353V67.7647C41.4118 67.7647 41.0301 67.7647 40.2667 67.7647H37.6471H35.0118H33.8824C33.8824 67.7647 33.8824 67.3882 33.8824 66.6353V67.7647C33.8824 67.7647 33.5007 67.7647 32.7373 67.7647H30.1176H27.4824H26.3529ZM56.4706 67.7647C56.4706 67.7647 56.4706 67.3882 56.4706 66.6353V64V61.3804V60.2353H57.6H60.2353H62.8549H64C64 60.2353 64 60.617 64 61.3804V64V66.6353V67.7647C64 67.7647 63.6183 67.7647 62.8549 67.7647H60.2353H57.6H56.4706ZM-3.33786e-06 60.2353C-3.33786e-06 60.2353 -3.33786e-06 59.8588 -3.33786e-06 59.1059V56.4706V53.851V52.7059C-3.33786e-06 52.7059 -3.33786e-06 52.3294 -3.33786e-06 51.5765V48.9412V46.3216V45.1765C-3.33786e-06 45.1765 -3.33786e-06 44.8 -3.33786e-06 44.0471V41.4118V38.7921V37.647C-3.33786e-06 37.647 -3.33786e-06 37.2706 -3.33786e-06 36.5176V33.8823V31.2627V30.1176C-3.33786e-06 30.1176 -3.33786e-06 29.7412 -3.33786e-06 28.9882V26.3529V23.7333V22.5882C-3.33786e-06 22.5882 -3.33786e-06 22.2118 -3.33786e-06 21.4588V18.8235V16.2039V15.0588C-3.33786e-06 15.0588 -3.33786e-06 14.6823 -3.33786e-06 13.9294V11.2941V8.6745V7.5294H1.12941H3.7647H6.38431H7.52941C7.52941 7.5294 7.52941 7.9111 7.52941 8.6745V11.2941V13.9294V15.0588C7.52941 15.0588 7.14771 15.0588 6.38431 15.0588H7.52941C7.52941 15.0588 7.52941 15.4405 7.52941 16.2039V18.8235V21.4588V22.5882C7.52941 22.5882 7.14771 22.5882 6.38431 22.5882H7.52941C7.52941 22.5882 7.52941 22.9699 7.52941 23.7333V26.3529V28.9882V30.1176C7.52941 30.1176 7.14771 30.1176 6.38431 30.1176H7.52941C7.52941 30.1176 7.52941 30.4993 7.52941 31.2627V33.8823V36.5176V37.647C7.52941 37.647 7.14771 37.647 6.38431 37.647H7.52941C7.52941 37.647 7.52941 38.0287 7.52941 38.7921V41.4118V44.0471V45.1765C7.52941 45.1765 7.14771 45.1765 6.38431 45.1765H7.52941C7.52941 45.1765 7.52941 45.5582 7.52941 46.3216V48.9412V51.5765V52.7059C7.52941 52.7059 7.14771 52.7059 6.38431 52.7059H7.52941C7.52941 52.7059 7.52941 53.0876 7.52941 53.851V56.4706V59.1059V60.2353C7.52941 60.2353 7.14771 60.2353 6.38431 60.2353H3.7647H1.12941H-3.33786e-06ZM30.1176 60.2353C30.1176 60.2353 30.1176 59.8588 30.1176 59.1059V56.4706V53.851V52.7059C30.1176 52.7059 30.1176 52.3294 30.1176 51.5765V48.9412V46.3216V45.1765C30.1176 45.1765 30.1176 44.8 30.1176 44.0471V41.4118V38.7921V37.647C30.1176 37.647 30.1176 37.2706 30.1176 36.5176V33.8823V31.2627V30.1176C30.1176 30.1176 30.1176 29.7412 30.1176 28.9882V26.3529V23.7333V22.5882C30.1176 22.5882 30.1176 22.2118 30.1176 21.4588V18.8235V16.2039V15.0588C30.1176 15.0588 30.1176 14.6823 30.1176 13.9294V11.2941V8.6745V7.5294H31.2471H33.8824H36.502H37.6471C37.6471 7.5294 37.6471 7.9111 37.6471 8.6745V11.2941V13.9294V15.0588C37.6471 15.0588 37.2654 15.0588 36.502 15.0588H37.6471C37.6471 15.0588 37.6471 15.4405 37.6471 16.2039V18.8235V21.4588V22.5882C37.6471 22.5882 37.2654 22.5882 36.502 22.5882H37.6471C37.6471 22.5882 37.6471 22.9699 37.6471 23.7333V26.3529V28.9882V30.1176C37.6471 30.1176 37.2654 30.1176 36.502 30.1176H37.6471C37.6471 30.1176 37.6471 30.4993 37.6471 31.2627V33.8823V36.5176V37.647C37.6471 37.647 37.2654 37.647 36.502 37.647H37.6471C37.6471 37.647 37.6471 38.0287 37.6471 38.7921V41.4118V44.0471V45.1765C37.6471 45.1765 37.2654 45.1765 36.502 45.1765H37.6471C37.6471 45.1765 37.6471 45.5582 37.6471 46.3216V48.9412V51.5765V52.7059C37.6471 52.7059 37.2654 52.7059 36.502 52.7059H37.6471C37.6471 52.7059 37.6471 53.0876 37.6471 53.851V56.4706V59.1059V60.2353C37.6471 60.2353 37.2654 60.2353 36.502 60.2353H33.8824H31.2471H30.1176ZM60.2353 60.2353C60.2353 60.2353 60.2353 59.8588 60.2353 59.1059V56.4706V53.851V52.7059C60.2353 52.7059 60.2353 52.3294 60.2353 51.5765V48.9412V46.3216V45.1765C60.2353 45.1765 60.2353 44.8 60.2353 44.0471V41.4118V38.7921V37.647C60.2353 37.647 60.2353 37.2706 60.2353 36.5176V33.8823V31.2627V30.1176C60.2353 30.1176 60.2353 29.7412 60.2353 28.9882V26.3529V23.7333V22.5882C60.2353 22.5882 60.2353 22.2118 60.2353 21.4588V18.8235V16.2039V15.0588C60.2353 15.0588 60.2353 14.6823 60.2353 13.9294V11.2941V8.6745V7.5294H61.3647H64H66.6196H67.7647C67.7647 7.5294 67.7647 7.9111 67.7647 8.6745V11.2941V13.9294V15.0588C67.7647 15.0588 67.383 15.0588 66.6196 15.0588H67.7647C67.7647 15.0588 67.7647 15.4405 67.7647 16.2039V18.8235V21.4588V22.5882C67.7647 22.5882 67.383 22.5882 66.6196 22.5882H67.7647C67.7647 22.5882 67.7647 22.9699 67.7647 23.7333V26.3529V28.9882V30.1176C67.7647 30.1176 67.383 30.1176 66.6196 30.1176H67.7647C67.7647 30.1176 67.7647 30.4993 67.7647 31.2627V33.8823V36.5176V37.647C67.7647 37.647 67.383 37.647 66.6196 37.647H67.7647C67.7647 37.647 67.7647 38.0287 67.7647 38.7921V41.4118V44.0471V45.1765C67.7647 45.1765 67.383 45.1765 66.6196 45.1765H67.7647C67.7647 45.1765 67.7647 45.5582 67.7647 46.3216V48.9412V51.5765V52.7059C67.7647 52.7059 67.383 52.7059 66.6196 52.7059H67.7647C67.7647 52.7059 67.7647 53.0876 67.7647 53.851V56.4706V59.1059V60.2353C67.7647 60.2353 67.383 60.2353 66.6196 60.2353H64H61.3647H60.2353ZM79.0147 90.3529C79.0147 90.3529 79.0147 89.9765 79.0147 89.2235V86.5882V83.9686V82.8235C79.0147 82.8235 79.0147 82.4471 79.0147 81.6941V79.0588V76.4392V75.2941C79.0147 75.2941 79.0147 74.9176 79.0147 74.1647V71.5294V68.9098V67.7647C79.0147 67.7647 79.0147 67.3882 79.0147 66.6353V64V61.3804V60.2353C79.0147 60.2353 79.0147 59.8588 79.0147 59.1059V56.4706V53.851V52.7059C79.0147 52.7059 79.0147 52.3294 79.0147 51.5765V48.9412V46.3216V45.1765C79.0147 45.1765 79.0147 44.8 79.0147 44.0471V41.4118V38.7921V37.647C79.0147 37.647 79.0147 37.2706 79.0147 36.5176V33.8823V31.2627V30.1176C79.0147 30.1176 79.0147 29.7412 79.0147 28.9882V26.3529V23.7333V22.5882C79.0147 22.5882 79.0147 22.2118 79.0147 21.4588V18.8235V16.2039V15.0588C79.0147 15.0588 79.0147 14.6823 79.0147 13.9294V11.2941V8.6745V7.5294C79.0147 7.5294 79.0147 7.15293 79.0147 6.39999V3.76469V1.14509V-7.62939e-06H80.1441H82.7794H85.399H86.5441C86.5441 -7.62939e-06 86.5441 0.381691 86.5441 1.14509V3.76469V6.39999V7.5294C86.5441 7.5294 86.1624 7.5294 85.399 7.5294H86.5441C86.5441 7.5294 86.5441 7.9111 86.5441 8.6745V11.2941V13.9294V15.0588C86.5441 15.0588 86.1624 15.0588 85.399 15.0588H86.5441C86.5441 15.0588 86.5441 15.4405 86.5441 16.2039V18.8235V21.4588V22.5882C86.5441 22.5882 86.1624 22.5882 85.399 22.5882H86.5441C86.5441 22.5882 86.5441 22.9699 86.5441 23.7333V26.3529V28.9882V30.1176C86.5441 30.1176 86.1624 30.1176 85.399 30.1176H86.5441C86.5441 30.1176 86.5441 30.4993 86.5441 31.2627V33.8823V36.5176V37.647C86.5441 37.647 86.1624 37.647 85.399 37.647H86.5441C86.5441 37.647 86.5441 38.0287 86.5441 38.7921V37.647H87.6735H90.3088H92.9284H94.0735C94.0735 37.647 94.0735 38.0287 94.0735 38.7921V41.4118V44.0471V45.1765C94.0735 45.1765 93.6918 45.1765 92.9284 45.1765H90.3088H87.6735H86.5441C86.5441 45.1765 86.5441 44.8 86.5441 44.0471V45.1765C86.5441 45.1765 86.1624 45.1765 85.399 45.1765H86.5441C86.5441 45.1765 86.5441 45.5582 86.5441 46.3216V48.9412V51.5765V52.7059C86.5441 52.7059 86.1624 52.7059 85.399 52.7059H86.5441C86.5441 52.7059 86.5441 53.0876 86.5441 53.851V56.4706V59.1059V60.2353C86.5441 60.2353 86.1624 60.2353 85.399 60.2353H86.5441C86.5441 60.2353 86.5441 60.617 86.5441 61.3804V64V66.6353V67.7647C86.5441 67.7647 86.1624 67.7647 85.399 67.7647H86.5441C86.5441 67.7647 86.5441 68.1464 86.5441 68.9098V71.5294V74.1647V75.2941C86.5441 75.2941 86.1624 75.2941 85.399 75.2941H86.5441C86.5441 75.2941 86.5441 75.6758 86.5441 76.4392V79.0588V81.6941V82.8235C86.5441 82.8235 86.1624 82.8235 85.399 82.8235H86.5441C86.5441 82.8235 86.5441 83.2052 86.5441 83.9686V86.5882V89.2235V90.3529C86.5441 90.3529 86.1624 90.3529 85.399 90.3529H82.7794H80.1441H79.0147ZM109.132 90.3529C109.132 90.3529 109.132 89.9765 109.132 89.2235V86.5882V83.9686V82.8235C109.132 82.8235 109.132 82.4471 109.132 81.6941V79.0588V76.4392V75.2941C109.132 75.2941 109.132 74.9176 109.132 74.1647V71.5294V68.9098V67.7647C109.132 67.7647 109.132 67.3882 109.132 66.6353V64V61.3804V60.2353C109.132 60.2353 109.132 59.8588 109.132 59.1059V56.4706V53.851V52.7059C109.132 52.7059 109.132 52.3294 109.132 51.5765V48.9412V46.3216V45.1765C109.132 45.1765 109.132 44.8 109.132 44.0471V41.4118V38.7921V37.647H110.262H112.897H115.517H116.662C116.662 37.647 116.662 38.0287 116.662 38.7921V41.4118V44.0471V45.1765C116.662 45.1765 116.28 45.1765 115.517 45.1765H116.662C116.662 45.1765 116.662 45.5582 116.662 46.3216V48.9412V51.5765V52.7059C116.662 52.7059 116.28 52.7059 115.517 52.7059H116.662C116.662 52.7059 116.662 53.0876 116.662 53.851V56.4706V59.1059V60.2353C116.662 60.2353 116.28 60.2353 115.517 60.2353H116.662C116.662 60.2353 116.662 60.617 116.662 61.3804V64V66.6353V67.7647C116.662 67.7647 116.28 67.7647 115.517 67.7647H116.662C116.662 67.7647 116.662 68.1464 116.662 68.9098V71.5294V74.1647V75.2941C116.662 75.2941 116.28 75.2941 115.517 75.2941H116.662C116.662 75.2941 116.662 75.6758 116.662 76.4392V79.0588V81.6941V82.8235C116.662 82.8235 116.28 82.8235 115.517 82.8235H116.662C116.662 82.8235 116.662 83.2052 116.662 83.9686V86.5882V89.2235V90.3529C116.662 90.3529 116.28 90.3529 115.517 90.3529H112.897H110.262H109.132ZM94.0735 37.647C94.0735 37.647 94.0735 37.2706 94.0735 36.5176V33.8823V31.2627V30.1176H95.2029H97.8382H100.458H101.603C101.603 30.1176 101.603 30.4993 101.603 31.2627V30.1176H102.732H105.368H107.987H109.132C109.132 30.1176 109.132 30.4993 109.132 31.2627V33.8823V36.5176V37.647C109.132 37.647 108.751 37.647 107.987 37.647H105.368H102.732H101.603C101.603 37.647 101.603 37.2706 101.603 36.5176V37.647C101.603 37.647 101.221 37.647 100.458 37.647H97.8382H95.2029H94.0735ZM135.529 90.3529C135.529 90.3529 135.529 89.9765 135.529 89.2235V86.5882V83.9686V82.8235H136.659H139.294H141.914H143.059C143.059 82.8235 143.059 83.2052 143.059 83.9686V82.8235H144.188H146.824H149.443H150.588C150.588 82.8235 150.588 83.2052 150.588 83.9686V86.5882V89.2235V90.3529C150.588 90.3529 150.207 90.3529 149.443 90.3529H146.824H144.188H143.059C143.059 90.3529 143.059 89.9765 143.059 89.2235V90.3529C143.059 90.3529 142.677 90.3529 141.914 90.3529H139.294H136.659H135.529ZM128 82.8235C128 82.8235 128 82.4471 128 81.6941V79.0588V76.4392V75.2941C128 75.2941 128 74.9176 128 74.1647V71.5294V68.9098V67.7647H129.129H131.765H134.384H135.529C135.529 67.7647 135.529 68.1464 135.529 68.9098V71.5294V74.1647V75.2941C135.529 75.2941 135.148 75.2941 134.384 75.2941H135.529C135.529 75.2941 135.529 75.6758 135.529 76.4392V79.0588V81.6941V82.8235C135.529 82.8235 135.148 82.8235 134.384 82.8235H131.765H129.129H128ZM135.529 67.7647C135.529 67.7647 135.529 67.3882 135.529 66.6353V64V61.3804V60.2353H136.659H139.294H141.914H143.059C143.059 60.2353 143.059 60.617 143.059 61.3804V60.2353H144.188H146.824H149.443H150.588C150.588 60.2353 150.588 60.617 150.588 61.3804V60.2353H151.718H154.353H156.973H158.118C158.118 60.2353 158.118 60.617 158.118 61.3804V60.2353C158.118 60.2353 158.118 59.8588 158.118 59.1059V56.4706V53.851V52.7059C158.118 52.7059 158.118 52.3294 158.118 51.5765V48.9412V46.3216V45.1765C158.118 45.1765 158.118 44.8 158.118 44.0471V41.4118V38.7921V37.647H159.247H161.882H164.502H165.647C165.647 37.647 165.647 38.0287 165.647 38.7921V41.4118V44.0471V45.1765C165.647 45.1765 165.265 45.1765 164.502 45.1765H165.647C165.647 45.1765 165.647 45.5582 165.647 46.3216V48.9412V51.5765V52.7059C165.647 52.7059 165.265 52.7059 164.502 52.7059H165.647C165.647 52.7059 165.647 53.0876 165.647 53.851V56.4706V59.1059V60.2353C165.647 60.2353 165.265 60.2353 164.502 60.2353H165.647C165.647 60.2353 165.647 60.617 165.647 61.3804V64V66.6353V67.7647C165.647 67.7647 165.265 67.7647 164.502 67.7647H165.647C165.647 67.7647 165.647 68.1464 165.647 68.9098V71.5294V74.1647V75.2941C165.647 75.2941 165.265 75.2941 164.502 75.2941H165.647C165.647 75.2941 165.647 75.6758 165.647 76.4392V79.0588V81.6941V82.8235C165.647 82.8235 165.265 82.8235 164.502 82.8235H165.647C165.647 82.8235 165.647 83.2052 165.647 83.9686V86.5882V89.2235V90.3529C165.647 90.3529 165.265 90.3529 164.502 90.3529H161.882H159.247H158.118C158.118 90.3529 158.118 89.9765 158.118 89.2235V86.5882V83.9686V82.8235C158.118 82.8235 158.118 82.4471 158.118 81.6941V82.8235C158.118 82.8235 157.736 82.8235 156.973 82.8235H154.353H151.718H150.588C150.588 82.8235 150.588 82.4471 150.588 81.6941V79.0588V76.4392V75.2941H151.718H154.353H156.973H158.118C158.118 75.2941 158.118 75.6758 158.118 76.4392V75.2941C158.118 75.2941 158.118 74.9176 158.118 74.1647V71.5294V68.9098V67.7647C158.118 67.7647 158.118 67.3882 158.118 66.6353V67.7647C158.118 67.7647 157.736 67.7647 156.973 67.7647H154.353H151.718H150.588C150.588 67.7647 150.588 67.3882 150.588 66.6353V67.7647C150.588 67.7647 150.207 67.7647 149.443 67.7647H146.824H144.188H143.059C143.059 67.7647 143.059 67.3882 143.059 66.6353V67.7647C143.059 67.7647 142.677 67.7647 141.914 67.7647H139.294H136.659H135.529ZM128 45.1765C128 45.1765 128 44.8 128 44.0471V41.4118V38.7921V37.647H129.129H131.765H134.384H135.529C135.529 37.647 135.529 38.0287 135.529 38.7921V41.4118V44.0471V45.1765C135.529 45.1765 135.148 45.1765 134.384 45.1765H131.765H129.129H128ZM135.529 37.647C135.529 37.647 135.529 37.2706 135.529 36.5176V33.8823V31.2627V30.1176H136.659H139.294H141.914H143.059C143.059 30.1176 143.059 30.4993 143.059 31.2627V30.1176H144.188H146.824H149.443H150.588C150.588 30.1176 150.588 30.4993 150.588 31.2627V30.1176H151.718H154.353H156.973H158.118C158.118 30.1176 158.118 30.4993 158.118 31.2627V33.8823V36.5176V37.647C158.118 37.647 157.736 37.647 156.973 37.647H154.353H151.718H150.588C150.588 37.647 150.588 37.2706 150.588 36.5176V37.647C150.588 37.647 150.207 37.647 149.443 37.647H146.824H144.188H143.059C143.059 37.647 143.059 37.2706 143.059 36.5176V37.647C143.059 37.647 142.677 37.647 141.914 37.647H139.294H136.659H135.529ZM192.059 90.3529C192.059 90.3529 192.059 89.9765 192.059 89.2235V86.5882V83.9686V82.8235H193.188H195.824H198.443H199.588C199.588 82.8235 199.588 83.2052 199.588 83.9686V82.8235H200.718H203.353H205.973H207.118C207.118 82.8235 207.118 83.2052 207.118 83.9686V86.5882V89.2235V90.3529C207.118 90.3529 206.736 90.3529 205.973 90.3529H203.353H200.718H199.588C199.588 90.3529 199.588 89.9765 199.588 89.2235V90.3529C199.588 90.3529 199.207 90.3529 198.443 90.3529H195.824H193.188H192.059ZM177 37.647C177 37.647 177 37.2706 177 36.5176V33.8823V31.2627V30.1176H178.129H180.765H183.384H184.529C184.529 30.1176 184.529 30.4993 184.529 31.2627V30.1176C184.529 30.1176 184.529 29.7412 184.529 28.9882V26.3529V23.7333V22.5882C184.529 22.5882 184.529 22.2118 184.529 21.4588V18.8235V16.2039V15.0588H185.659H188.294H190.914H192.059C192.059 15.0588 192.059 15.4405 192.059 16.2039V18.8235V21.4588V22.5882C192.059 22.5882 191.677 22.5882 190.914 22.5882H192.059C192.059 22.5882 192.059 22.9699 192.059 23.7333V26.3529V28.9882V30.1176C192.059 30.1176 191.677 30.1176 190.914 30.1176H192.059C192.059 30.1176 192.059 30.4993 192.059 31.2627V30.1176H193.188H195.824H198.443H199.588C199.588 30.1176 199.588 30.4993 199.588 31.2627V30.1176H200.718H203.353H205.973H207.118C207.118 30.1176 207.118 30.4993 207.118 31.2627V33.8823V36.5176V37.647C207.118 37.647 206.736 37.647 205.973 37.647H203.353H200.718H199.588C199.588 37.647 199.588 37.2706 199.588 36.5176V37.647C199.588 37.647 199.207 37.647 198.443 37.647H195.824H193.188H192.059C192.059 37.647 192.059 37.2706 192.059 36.5176V37.647C192.059 37.647 191.677 37.647 190.914 37.647H192.059C192.059 37.647 192.059 38.0287 192.059 38.7921V41.4118V44.0471V45.1765C192.059 45.1765 191.677 45.1765 190.914 45.1765H192.059C192.059 45.1765 192.059 45.5582 192.059 46.3216V48.9412V51.5765V52.7059C192.059 52.7059 191.677 52.7059 190.914 52.7059H192.059C192.059 52.7059 192.059 53.0876 192.059 53.851V56.4706V59.1059V60.2353C192.059 60.2353 191.677 60.2353 190.914 60.2353H192.059C192.059 60.2353 192.059 60.617 192.059 61.3804V64V66.6353V67.7647C192.059 67.7647 191.677 67.7647 190.914 67.7647H192.059C192.059 67.7647 192.059 68.1464 192.059 68.9098V71.5294V74.1647V75.2941C192.059 75.2941 191.677 75.2941 190.914 75.2941H192.059C192.059 75.2941 192.059 75.6758 192.059 76.4392V79.0588V81.6941V82.8235C192.059 82.8235 191.677 82.8235 190.914 82.8235H188.294H185.659H184.529C184.529 82.8235 184.529 82.4471 184.529 81.6941V79.0588V76.4392V75.2941C184.529 75.2941 184.529 74.9176 184.529 74.1647V71.5294V68.9098V67.7647C184.529 67.7647 184.529 67.3882 184.529 66.6353V64V61.3804V60.2353C184.529 60.2353 184.529 59.8588 184.529 59.1059V56.4706V53.851V52.7059C184.529 52.7059 184.529 52.3294 184.529 51.5765V48.9412V46.3216V45.1765C184.529 45.1765 184.529 44.8 184.529 44.0471V41.4118V38.7921V37.647C184.529 37.647 184.529 37.2706 184.529 36.5176V37.647C184.529 37.647 184.148 37.647 183.384 37.647H180.765H178.129H177ZM210.86 30.1176C210.86 30.1176 210.86 29.7412 210.86 28.9882V26.3529V23.7333V22.5882H211.99H214.625H217.245H218.39C218.39 22.5882 218.39 22.9699 218.39 23.7333V26.3529V28.9882V30.1176C218.39 30.1176 218.008 30.1176 217.245 30.1176H214.625H211.99H210.86ZM214.625 22.5882C214.625 22.5882 214.625 22.2118 214.625 21.4588V18.8235V16.2039V15.0588H215.754H218.39H221.009H222.154C222.154 15.0588 222.154 15.4405 222.154 16.2039V18.8235V21.4588V22.5882C222.154 22.5882 221.773 22.5882 221.009 22.5882H218.39H215.754H214.625ZM218.39 15.0588C218.39 15.0588 218.39 14.6823 218.39 13.9294V11.2941V8.6745V7.5294H219.519H222.154H224.774H225.919C225.919 7.5294 225.919 7.9111 225.919 8.6745V11.2941V13.9294V15.0588C225.919 15.0588 225.537 15.0588 224.774 15.0588H222.154H219.519H218.39ZM240.919 90.3529C240.919 90.3529 240.919 89.9765 240.919 89.2235V86.5882V83.9686V82.8235H242.049H244.684H247.303H248.449C248.449 82.8235 248.449 83.2052 248.449 83.9686V82.8235H249.578H252.213H254.833H255.978C255.978 82.8235 255.978 83.2052 255.978 83.9686V82.8235H257.107H259.743H262.362H263.507C263.507 82.8235 263.507 83.2052 263.507 83.9686V86.5882V89.2235V90.3529C263.507 90.3529 263.126 90.3529 262.362 90.3529H259.743H257.107H255.978C255.978 90.3529 255.978 89.9765 255.978 89.2235V90.3529C255.978 90.3529 255.596 90.3529 254.833 90.3529H252.213H249.578H248.449C248.449 90.3529 248.449 89.9765 248.449 89.2235V90.3529C248.449 90.3529 248.067 90.3529 247.303 90.3529H244.684H242.049H240.919ZM233.39 82.8235C233.39 82.8235 233.39 82.4471 233.39 81.6941V79.0588V76.4392V75.2941C233.39 75.2941 233.39 74.9176 233.39 74.1647V71.5294V68.9098V67.7647H234.519H237.154H239.774H240.919C240.919 67.7647 240.919 68.1464 240.919 68.9098V71.5294V74.1647V75.2941C240.919 75.2941 240.537 75.2941 239.774 75.2941H240.919C240.919 75.2941 240.919 75.6758 240.919 76.4392V79.0588V81.6941V82.8235C240.919 82.8235 240.537 82.8235 239.774 82.8235H237.154H234.519H233.39ZM263.507 82.8235C263.507 82.8235 263.507 82.4471 263.507 81.6941V79.0588V76.4392V75.2941C263.507 75.2941 263.507 74.9176 263.507 74.1647V71.5294V68.9098V67.7647H264.637H267.272H269.892H271.037C271.037 67.7647 271.037 68.1464 271.037 68.9098V71.5294V74.1647V75.2941C271.037 75.2941 270.655 75.2941 269.892 75.2941H271.037C271.037 75.2941 271.037 75.6758 271.037 76.4392V79.0588V81.6941V82.8235C271.037 82.8235 270.655 82.8235 269.892 82.8235H267.272H264.637H263.507ZM255.978 67.7647C255.978 67.7647 255.978 67.3882 255.978 66.6353V64V61.3804V60.2353H257.107H259.743H262.362H263.507C263.507 60.2353 263.507 60.617 263.507 61.3804V64V66.6353V67.7647C263.507 67.7647 263.126 67.7647 262.362 67.7647H259.743H257.107H255.978ZM248.449 64C248.449 64 248.449 63.6235 248.449 62.8706V60.2353V57.6157V56.4706H249.578H252.213H254.833H255.978C255.978 56.4706 255.978 56.8523 255.978 57.6157V60.2353V62.8706V64C255.978 64 255.596 64 254.833 64H252.213H249.578H248.449ZM240.919 60.2353C240.919 60.2353 240.919 59.8588 240.919 59.1059V56.4706V53.851V52.7059H242.049H244.684H247.303H248.449C248.449 52.7059 248.449 53.0876 248.449 53.851V56.4706V59.1059V60.2353C248.449 60.2353 248.067 60.2353 247.303 60.2353H244.684H242.049H240.919ZM233.39 52.7059C233.39 52.7059 233.39 52.3294 233.39 51.5765V48.9412V46.3216V45.1765C233.39 45.1765 233.39 44.8 233.39 44.0471V41.4118V38.7921V37.647H234.519H237.154H239.774H240.919C240.919 37.647 240.919 38.0287 240.919 38.7921V41.4118V44.0471V45.1765C240.919 45.1765 240.537 45.1765 239.774 45.1765H240.919C240.919 45.1765 240.919 45.5582 240.919 46.3216V48.9412V51.5765V52.7059C240.919 52.7059 240.537 52.7059 239.774 52.7059H237.154H234.519H233.39ZM263.507 52.7059C263.507 52.7059 263.507 52.3294 263.507 51.5765V48.9412V46.3216V45.1765C263.507 45.1765 263.507 44.8 263.507 44.0471V41.4118V38.7921V37.647H264.637H267.272H269.892H271.037C271.037 37.647 271.037 38.0287 271.037 38.7921V41.4118V44.0471V45.1765C271.037 45.1765 270.655 45.1765 269.892 45.1765H271.037C271.037 45.1765 271.037 45.5582 271.037 46.3216V48.9412V51.5765V52.7059C271.037 52.7059 270.655 52.7059 269.892 52.7059H267.272H264.637H263.507ZM240.919 37.647C240.919 37.647 240.919 37.2706 240.919 36.5176V33.8823V31.2627V30.1176H242.049H244.684H247.303H248.449C248.449 30.1176 248.449 30.4993 248.449 31.2627V30.1176H249.578H252.213H254.833H255.978C255.978 30.1176 255.978 30.4993 255.978 31.2627V30.1176H257.107H259.743H262.362H263.507C263.507 30.1176 263.507 30.4993 263.507 31.2627V33.8823V36.5176V37.647C263.507 37.647 263.126 37.647 262.362 37.647H259.743H257.107H255.978C255.978 37.647 255.978 37.2706 255.978 36.5176V37.647C255.978 37.647 255.596 37.647 254.833 37.647H252.213H249.578H248.449C248.449 37.647 248.449 37.2706 248.449 36.5176V37.647C248.449 37.647 248.067 37.647 247.303 37.647H244.684H242.049H240.919ZM316.294 90.3529C316.294 90.3529 316.294 89.9765 316.294 89.2235V86.5882V83.9686V82.8235H317.424H320.059H322.678H323.824C323.824 82.8235 323.824 83.2052 323.824 83.9686V82.8235H324.953H327.588H330.208H331.353C331.353 82.8235 331.353 83.2052 331.353 83.9686V82.8235H332.482H335.118H337.737H338.882C338.882 82.8235 338.882 83.2052 338.882 83.9686V86.5882V89.2235V90.3529C338.882 90.3529 338.501 90.3529 337.737 90.3529H335.118H332.482H331.353C331.353 90.3529 331.353 89.9765 331.353 89.2235V90.3529C331.353 90.3529 330.971 90.3529 330.208 90.3529H327.588H324.953H323.824C323.824 90.3529 323.824 89.9765 323.824 89.2235V90.3529C323.824 90.3529 323.442 90.3529 322.678 90.3529H320.059H317.424H316.294ZM308.765 82.8235C308.765 82.8235 308.765 82.4471 308.765 81.6941V79.0588V76.4392V75.2941C308.765 75.2941 308.765 74.9176 308.765 74.1647V71.5294V68.9098V67.7647C308.765 67.7647 308.765 67.3882 308.765 66.6353V64V61.3804V60.2353C308.765 60.2353 308.765 59.8588 308.765 59.1059V56.4706V53.851V52.7059C308.765 52.7059 308.765 52.3294 308.765 51.5765V48.9412V46.3216V45.1765C308.765 45.1765 308.765 44.8 308.765 44.0471V41.4118V38.7921V37.647H309.894H312.529H315.149H316.294C316.294 37.647 316.294 38.0287 316.294 38.7921V41.4118V44.0471V45.1765C316.294 45.1765 315.912 45.1765 315.149 45.1765H316.294C316.294 45.1765 316.294 45.5582 316.294 46.3216V48.9412V51.5765V52.7059C316.294 52.7059 315.912 52.7059 315.149 52.7059H316.294C316.294 52.7059 316.294 53.0876 316.294 53.851V56.4706V59.1059V60.2353C316.294 60.2353 315.912 60.2353 315.149 60.2353H316.294C316.294 60.2353 316.294 60.617 316.294 61.3804V64V66.6353V67.7647C316.294 67.7647 315.912 67.7647 315.149 67.7647H316.294C316.294 67.7647 316.294 68.1464 316.294 68.9098V71.5294V74.1647V75.2941C316.294 75.2941 315.912 75.2941 315.149 75.2941H316.294C316.294 75.2941 316.294 75.6758 316.294 76.4392V79.0588V81.6941V82.8235C316.294 82.8235 315.912 82.8235 315.149 82.8235H312.529H309.894H308.765ZM338.882 82.8235C338.882 82.8235 338.882 82.4471 338.882 81.6941V79.0588V76.4392V75.2941C338.882 75.2941 338.882 74.9176 338.882 74.1647V71.5294V68.9098V67.7647C338.882 67.7647 338.882 67.3882 338.882 66.6353V64V61.3804V60.2353C338.882 60.2353 338.882 59.8588 338.882 59.1059V56.4706V53.851V52.7059C338.882 52.7059 338.882 52.3294 338.882 51.5765V48.9412V46.3216V45.1765C338.882 45.1765 338.882 44.8 338.882 44.0471V41.4118V38.7921V37.647H340.012H342.647H345.267H346.412C346.412 37.647 346.412 38.0287 346.412 38.7921V41.4118V44.0471V45.1765C346.412 45.1765 346.03 45.1765 345.267 45.1765H346.412C346.412 45.1765 346.412 45.5582 346.412 46.3216V48.9412V51.5765V52.7059C346.412 52.7059 346.03 52.7059 345.267 52.7059H346.412C346.412 52.7059 346.412 53.0876 346.412 53.851V56.4706V59.1059V60.2353C346.412 60.2353 346.03 60.2353 345.267 60.2353H346.412C346.412 60.2353 346.412 60.617 346.412 61.3804V64V66.6353V67.7647C346.412 67.7647 346.03 67.7647 345.267 67.7647H346.412C346.412 67.7647 346.412 68.1464 346.412 68.9098V71.5294V74.1647V75.2941C346.412 75.2941 346.03 75.2941 345.267 75.2941H346.412C346.412 75.2941 346.412 75.6758 346.412 76.4392V79.0588V81.6941V82.8235C346.412 82.8235 346.03 82.8235 345.267 82.8235H342.647H340.012H338.882ZM316.294 37.647C316.294 37.647 316.294 37.2706 316.294 36.5176V33.8823V31.2627V30.1176H317.424H320.059H322.678H323.824C323.824 30.1176 323.824 30.4993 323.824 31.2627V30.1176H324.953H327.588H330.208H331.353C331.353 30.1176 331.353 30.4993 331.353 31.2627V30.1176H332.482H335.118H337.737H338.882C338.882 30.1176 338.882 30.4993 338.882 31.2627V33.8823V36.5176V37.647C338.882 37.647 338.501 37.647 337.737 37.647H335.118H332.482H331.353C331.353 37.647 331.353 37.2706 331.353 36.5176V37.647C331.353 37.647 330.971 37.647 330.208 37.647H327.588H324.953H323.824C323.824 37.647 323.824 37.2706 323.824 36.5176V37.647C323.824 37.647 323.442 37.647 322.678 37.647H320.059H317.424H316.294ZM361.515 90.3529C361.515 90.3529 361.515 89.9765 361.515 89.2235V86.5882V83.9686V82.8235C361.515 82.8235 361.515 82.4471 361.515 81.6941V79.0588V76.4392V75.2941C361.515 75.2941 361.515 74.9176 361.515 74.1647V71.5294V68.9098V67.7647C361.515 67.7647 361.515 67.3882 361.515 66.6353V64V61.3804V60.2353C361.515 60.2353 361.515 59.8588 361.515 59.1059V56.4706V53.851V52.7059C361.515 52.7059 361.515 52.3294 361.515 51.5765V48.9412V46.3216V45.1765C361.515 45.1765 361.515 44.8 361.515 44.0471V41.4118V38.7921V37.647C361.515 37.647 361.515 37.2706 361.515 36.5176V33.8823V31.2627V30.1176H362.644H365.279H367.899H369.044C369.044 30.1176 369.044 30.4993 369.044 31.2627V33.8823V36.5176V37.647C369.044 37.647 368.662 37.647 367.899 37.647H369.044C369.044 37.647 369.044 38.0287 369.044 38.7921V37.647H370.174H372.809H375.428H376.574C376.574 37.647 376.574 38.0287 376.574 38.7921V41.4118V44.0471V45.1765C376.574 45.1765 376.192 45.1765 375.428 45.1765H372.809H370.174H369.044C369.044 45.1765 369.044 44.8 369.044 44.0471V45.1765C369.044 45.1765 368.662 45.1765 367.899 45.1765H369.044C369.044 45.1765 369.044 45.5582 369.044 46.3216V48.9412V51.5765V52.7059C369.044 52.7059 368.662 52.7059 367.899 52.7059H369.044C369.044 52.7059 369.044 53.0876 369.044 53.851V56.4706V59.1059V60.2353C369.044 60.2353 368.662 60.2353 367.899 60.2353H369.044C369.044 60.2353 369.044 60.617 369.044 61.3804V64V66.6353V67.7647C369.044 67.7647 368.662 67.7647 367.899 67.7647H369.044C369.044 67.7647 369.044 68.1464 369.044 68.9098V71.5294V74.1647V75.2941C369.044 75.2941 368.662 75.2941 367.899 75.2941H369.044C369.044 75.2941 369.044 75.6758 369.044 76.4392V79.0588V81.6941V82.8235C369.044 82.8235 368.662 82.8235 367.899 82.8235H369.044C369.044 82.8235 369.044 83.2052 369.044 83.9686V86.5882V89.2235V90.3529C369.044 90.3529 368.662 90.3529 367.899 90.3529H365.279H362.644H361.515ZM391.632 90.3529C391.632 90.3529 391.632 89.9765 391.632 89.2235V86.5882V83.9686V82.8235C391.632 82.8235 391.632 82.4471 391.632 81.6941V79.0588V76.4392V75.2941C391.632 75.2941 391.632 74.9176 391.632 74.1647V71.5294V68.9098V67.7647C391.632 67.7647 391.632 67.3882 391.632 66.6353V64V61.3804V60.2353C391.632 60.2353 391.632 59.8588 391.632 59.1059V56.4706V53.851V52.7059C391.632 52.7059 391.632 52.3294 391.632 51.5765V48.9412V46.3216V45.1765C391.632 45.1765 391.632 44.8 391.632 44.0471V41.4118V38.7921V37.647H392.762H395.397H398.017H399.162C399.162 37.647 399.162 38.0287 399.162 38.7921V41.4118V44.0471V45.1765C399.162 45.1765 398.78 45.1765 398.017 45.1765H399.162C399.162 45.1765 399.162 45.5582 399.162 46.3216V48.9412V51.5765V52.7059C399.162 52.7059 398.78 52.7059 398.017 52.7059H399.162C399.162 52.7059 399.162 53.0876 399.162 53.851V56.4706V59.1059V60.2353C399.162 60.2353 398.78 60.2353 398.017 60.2353H399.162C399.162 60.2353 399.162 60.617 399.162 61.3804V64V66.6353V67.7647C399.162 67.7647 398.78 67.7647 398.017 67.7647H399.162C399.162 67.7647 399.162 68.1464 399.162 68.9098V71.5294V74.1647V75.2941C399.162 75.2941 398.78 75.2941 398.017 75.2941H399.162C399.162 75.2941 399.162 75.6758 399.162 76.4392V79.0588V81.6941V82.8235C399.162 82.8235 398.78 82.8235 398.017 82.8235H399.162C399.162 82.8235 399.162 83.2052 399.162 83.9686V86.5882V89.2235V90.3529C399.162 90.3529 398.78 90.3529 398.017 90.3529H395.397H392.762H391.632ZM376.574 37.647C376.574 37.647 376.574 37.2706 376.574 36.5176V33.8823V31.2627V30.1176H377.703H380.338H382.958H384.103C384.103 30.1176 384.103 30.4993 384.103 31.2627V30.1176H385.232H387.868H390.487H391.632C391.632 30.1176 391.632 30.4993 391.632 31.2627V33.8823V36.5176V37.647C391.632 37.647 391.251 37.647 390.487 37.647H387.868H385.232H384.103C384.103 37.647 384.103 37.2706 384.103 36.5176V37.647C384.103 37.647 383.721 37.647 382.958 37.647H380.338H377.703H376.574ZM425.596 112.941C425.596 112.941 425.596 112.559 425.596 111.796V109.176V106.541V105.412H426.741H429.36H431.98H433.125C433.125 105.412 433.125 105.788 433.125 106.541V105.412H434.254H436.89H439.509H440.654C440.654 105.412 440.654 105.788 440.654 106.541V105.412H441.784H444.419H447.039H448.184C448.184 105.412 448.184 105.788 448.184 106.541V109.176V111.796V112.941C448.184 112.941 447.802 112.941 447.039 112.941H444.419H441.784H440.654C440.654 112.941 440.654 112.559 440.654 111.796V112.941C440.654 112.941 440.273 112.941 439.509 112.941H436.89H434.254H433.125C433.125 112.941 433.125 112.559 433.125 111.796V112.941C433.125 112.941 432.743 112.941 431.98 112.941H429.36H426.741H425.596ZM444.419 105.412C444.419 105.412 444.419 105.03 444.419 104.267V101.647V99.0118V97.8823H445.549H448.184H450.803H451.949C451.949 97.8823 451.949 98.2588 451.949 99.0118V101.647V104.267V105.412C451.949 105.412 451.567 105.412 450.803 105.412H448.184H445.549H444.419ZM448.184 97.8823C448.184 97.8823 448.184 97.5006 448.184 96.7372V94.1176V91.4823V90.3529H449.313H451.949H454.568H455.713C455.713 90.3529 455.713 90.7294 455.713 91.4823V94.1176V96.7372V97.8823C455.713 97.8823 455.332 97.8823 454.568 97.8823H451.949H449.313H448.184ZM444.419 90.3529C444.419 90.3529 444.419 89.9765 444.419 89.2235V86.5882V83.9686V82.8235H445.549H448.184H450.803H451.949C451.949 82.8235 451.949 83.2052 451.949 83.9686V82.8235H453.078H455.713H458.333H459.478C459.478 82.8235 459.478 83.2052 459.478 83.9686V86.5882V89.2235V90.3529C459.478 90.3529 459.096 90.3529 458.333 90.3529H455.713H453.078H451.949C451.949 90.3529 451.949 89.9765 451.949 89.2235V90.3529C451.949 90.3529 451.567 90.3529 450.803 90.3529H448.184H445.549H444.419ZM440.654 82.8235C440.654 82.8235 440.654 82.4471 440.654 81.6941V79.0588V76.4392V75.2941H441.784H444.419H447.039H448.184C448.184 75.2941 448.184 75.6758 448.184 76.4392V79.0588V81.6941V82.8235C448.184 82.8235 447.802 82.8235 447.039 82.8235H444.419H441.784H440.654ZM455.713 82.8235C455.713 82.8235 455.713 82.4471 455.713 81.6941V79.0588V76.4392V75.2941H456.843H459.478H462.098H463.243C463.243 75.2941 463.243 75.6758 463.243 76.4392V79.0588V81.6941V82.8235C463.243 82.8235 462.861 82.8235 462.098 82.8235H459.478H456.843H455.713ZM436.89 75.2941C436.89 75.2941 436.89 74.9176 436.89 74.1647V71.5294V68.9098V67.7647H438.019H440.654H443.274H444.419C444.419 67.7647 444.419 68.1464 444.419 68.9098V71.5294V74.1647V75.2941C444.419 75.2941 444.037 75.2941 443.274 75.2941H440.654H438.019H436.89ZM459.478 75.2941C459.478 75.2941 459.478 74.9176 459.478 74.1647V71.5294V68.9098V67.7647H460.607H463.243H465.862H467.007C467.007 67.7647 467.007 68.1464 467.007 68.9098V71.5294V74.1647V75.2941C467.007 75.2941 466.626 75.2941 465.862 75.2941H463.243H460.607H459.478ZM433.125 67.7647C433.125 67.7647 433.125 67.3882 433.125 66.6353V64V61.3804V60.2353C433.125 60.2353 433.125 59.8588 433.125 59.1059V56.4706V53.851V52.7059C433.125 52.7059 433.125 52.3294 433.125 51.5765V48.9412V46.3216V45.1765C433.125 45.1765 433.125 44.8 433.125 44.0471V41.4118V38.7921V37.647C433.125 37.647 433.125 37.2706 433.125 36.5176V33.8823V31.2627V30.1176H434.254H436.89H439.509H440.654C440.654 30.1176 440.654 30.4993 440.654 31.2627V33.8823V36.5176V37.647C440.654 37.647 440.273 37.647 439.509 37.647H440.654C440.654 37.647 440.654 38.0287 440.654 38.7921V41.4118V44.0471V45.1765C440.654 45.1765 440.273 45.1765 439.509 45.1765H440.654C440.654 45.1765 440.654 45.5582 440.654 46.3216V48.9412V51.5765V52.7059C440.654 52.7059 440.273 52.7059 439.509 52.7059H440.654C440.654 52.7059 440.654 53.0876 440.654 53.851V56.4706V59.1059V60.2353C440.654 60.2353 440.273 60.2353 439.509 60.2353H440.654C440.654 60.2353 440.654 60.617 440.654 61.3804V64V66.6353V67.7647C440.654 67.7647 440.273 67.7647 439.509 67.7647H436.89H434.254H433.125ZM463.243 67.7647C463.243 67.7647 463.243 67.3882 463.243 66.6353V64V61.3804V60.2353C463.243 60.2353 463.243 59.8588 463.243 59.1059V56.4706V53.851V52.7059C463.243 52.7059 463.243 52.3294 463.243 51.5765V48.9412V46.3216V45.1765C463.243 45.1765 463.243 44.8 463.243 44.0471V41.4118V38.7921V37.647C463.243 37.647 463.243 37.2706 463.243 36.5176V33.8823V31.2627V30.1176H464.372H467.007H469.627H470.772C470.772 30.1176 470.772 30.4993 470.772 31.2627V33.8823V36.5176V37.647C470.772 37.647 470.39 37.647 469.627 37.647H470.772C470.772 37.647 470.772 38.0287 470.772 38.7921V41.4118V44.0471V45.1765C470.772 45.1765 470.39 45.1765 469.627 45.1765H470.772C470.772 45.1765 470.772 45.5582 470.772 46.3216V48.9412V51.5765V52.7059C470.772 52.7059 470.39 52.7059 469.627 52.7059H470.772C470.772 52.7059 470.772 53.0876 470.772 53.851V56.4706V59.1059V60.2353C470.772 60.2353 470.39 60.2353 469.627 60.2353H470.772C470.772 60.2353 470.772 60.617 470.772 61.3804V64V66.6353V67.7647C470.772 67.7647 470.39 67.7647 469.627 67.7647H467.007H464.372H463.243ZM489.544 90.3529C489.544 90.3529 489.544 89.9765 489.544 89.2235V86.5882V83.9686V82.8235H490.674H493.309H495.928H497.074C497.074 82.8235 497.074 83.2052 497.074 83.9686V82.8235H498.203H500.838H503.458H504.603C504.603 82.8235 504.603 83.2052 504.603 83.9686V82.8235H505.732H508.368H510.987H512.132C512.132 82.8235 512.132 83.2052 512.132 83.9686V86.5882V89.2235V90.3529C512.132 90.3529 511.751 90.3529 510.987 90.3529H508.368H505.732H504.603C504.603 90.3529 504.603 89.9765 504.603 89.2235V90.3529C504.603 90.3529 504.221 90.3529 503.458 90.3529H500.838H498.203H497.074C497.074 90.3529 497.074 89.9765 497.074 89.2235V90.3529C497.074 90.3529 496.692 90.3529 495.928 90.3529H493.309H490.674H489.544ZM482.015 82.8235C482.015 82.8235 482.015 82.4471 482.015 81.6941V79.0588V76.4392V75.2941C482.015 75.2941 482.015 74.9176 482.015 74.1647V71.5294V68.9098V67.7647C482.015 67.7647 482.015 67.3882 482.015 66.6353V64V61.3804V60.2353C482.015 60.2353 482.015 59.8588 482.015 59.1059V56.4706V53.851V52.7059C482.015 52.7059 482.015 52.3294 482.015 51.5765V48.9412V46.3216V45.1765C482.015 45.1765 482.015 44.8 482.015 44.0471V41.4118V38.7921V37.647H483.144H485.779H488.399H489.544C489.544 37.647 489.544 38.0287 489.544 38.7921V41.4118V44.0471V45.1765C489.544 45.1765 489.162 45.1765 488.399 45.1765H489.544C489.544 45.1765 489.544 45.5582 489.544 46.3216V48.9412V51.5765V52.7059C489.544 52.7059 489.162 52.7059 488.399 52.7059H489.544C489.544 52.7059 489.544 53.0876 489.544 53.851V56.4706V59.1059V60.2353C489.544 60.2353 489.162 60.2353 488.399 60.2353H489.544C489.544 60.2353 489.544 60.617 489.544 61.3804V64V66.6353V67.7647C489.544 67.7647 489.162 67.7647 488.399 67.7647H489.544C489.544 67.7647 489.544 68.1464 489.544 68.9098V71.5294V74.1647V75.2941C489.544 75.2941 489.162 75.2941 488.399 75.2941H489.544C489.544 75.2941 489.544 75.6758 489.544 76.4392V79.0588V81.6941V82.8235C489.544 82.8235 489.162 82.8235 488.399 82.8235H485.779H483.144H482.015ZM512.132 82.8235C512.132 82.8235 512.132 82.4471 512.132 81.6941V79.0588V76.4392V75.2941C512.132 75.2941 512.132 74.9176 512.132 74.1647V71.5294V68.9098V67.7647C512.132 67.7647 512.132 67.3882 512.132 66.6353V64V61.3804V60.2353C512.132 60.2353 512.132 59.8588 512.132 59.1059V56.4706V53.851V52.7059C512.132 52.7059 512.132 52.3294 512.132 51.5765V48.9412V46.3216V45.1765C512.132 45.1765 512.132 44.8 512.132 44.0471V41.4118V38.7921V37.647H513.262H515.897H518.517H519.662C519.662 37.647 519.662 38.0287 519.662 38.7921V41.4118V44.0471V45.1765C519.662 45.1765 519.28 45.1765 518.517 45.1765H519.662C519.662 45.1765 519.662 45.5582 519.662 46.3216V48.9412V51.5765V52.7059C519.662 52.7059 519.28 52.7059 518.517 52.7059H519.662C519.662 52.7059 519.662 53.0876 519.662 53.851V56.4706V59.1059V60.2353C519.662 60.2353 519.28 60.2353 518.517 60.2353H519.662C519.662 60.2353 519.662 60.617 519.662 61.3804V64V66.6353V67.7647C519.662 67.7647 519.28 67.7647 518.517 67.7647H519.662C519.662 67.7647 519.662 68.1464 519.662 68.9098V71.5294V74.1647V75.2941C519.662 75.2941 519.28 75.2941 518.517 75.2941H519.662C519.662 75.2941 519.662 75.6758 519.662 76.4392V79.0588V81.6941V82.8235C519.662 82.8235 519.28 82.8235 518.517 82.8235H515.897H513.262H512.132ZM489.544 37.647C489.544 37.647 489.544 37.2706 489.544 36.5176V33.8823V31.2627V30.1176H490.674H493.309H495.928H497.074C497.074 30.1176 497.074 30.4993 497.074 31.2627V30.1176H498.203H500.838H503.458H504.603C504.603 30.1176 504.603 30.4993 504.603 31.2627V30.1176H505.732H508.368H510.987H512.132C512.132 30.1176 512.132 30.4993 512.132 31.2627V33.8823V36.5176V37.647C512.132 37.647 511.751 37.647 510.987 37.647H508.368H505.732H504.603C504.603 37.647 504.603 37.2706 504.603 36.5176V37.647C504.603 37.647 504.221 37.647 503.458 37.647H500.838H498.203H497.074C497.074 37.647 497.074 37.2706 497.074 36.5176V37.647C497.074 37.647 496.692 37.647 495.928 37.647H493.309H490.674H489.544ZM542.294 90.3529C542.294 90.3529 542.294 89.9765 542.294 89.2235V86.5882V83.9686V82.8235H543.424H546.059H548.678H549.824C549.824 82.8235 549.824 83.2052 549.824 83.9686V82.8235H550.953H553.588H556.208H557.353C557.353 82.8235 557.353 83.2052 557.353 83.9686V86.5882V89.2235V90.3529C557.353 90.3529 556.971 90.3529 556.208 90.3529H553.588H550.953H549.824C549.824 90.3529 549.824 89.9765 549.824 89.2235V90.3529C549.824 90.3529 549.442 90.3529 548.678 90.3529H546.059H543.424H542.294ZM534.765 82.8235C534.765 82.8235 534.765 82.4471 534.765 81.6941V79.0588V76.4392V75.2941C534.765 75.2941 534.765 74.9176 534.765 74.1647V71.5294V68.9098V67.7647C534.765 67.7647 534.765 67.3882 534.765 66.6353V64V61.3804V60.2353C534.765 60.2353 534.765 59.8588 534.765 59.1059V56.4706V53.851V52.7059C534.765 52.7059 534.765 52.3294 534.765 51.5765V48.9412V46.3216V45.1765C534.765 45.1765 534.765 44.8 534.765 44.0471V41.4118V38.7921V37.647C534.765 37.647 534.765 37.2706 534.765 36.5176V33.8823V31.2627V30.1176H535.894H538.529H541.149H542.294C542.294 30.1176 542.294 30.4993 542.294 31.2627V33.8823V36.5176V37.647C542.294 37.647 541.912 37.647 541.149 37.647H542.294C542.294 37.647 542.294 38.0287 542.294 38.7921V41.4118V44.0471V45.1765C542.294 45.1765 541.912 45.1765 541.149 45.1765H542.294C542.294 45.1765 542.294 45.5582 542.294 46.3216V48.9412V51.5765V52.7059C542.294 52.7059 541.912 52.7059 541.149 52.7059H542.294C542.294 52.7059 542.294 53.0876 542.294 53.851V56.4706V59.1059V60.2353C542.294 60.2353 541.912 60.2353 541.149 60.2353H542.294C542.294 60.2353 542.294 60.617 542.294 61.3804V64V66.6353V67.7647C542.294 67.7647 541.912 67.7647 541.149 67.7647H542.294C542.294 67.7647 542.294 68.1464 542.294 68.9098V71.5294V74.1647V75.2941C542.294 75.2941 541.912 75.2941 541.149 75.2941H542.294C542.294 75.2941 542.294 75.6758 542.294 76.4392V79.0588V81.6941V82.8235C542.294 82.8235 541.912 82.8235 541.149 82.8235H538.529H535.894H534.765ZM557.353 82.8235C557.353 82.8235 557.353 82.4471 557.353 81.6941V79.0588V76.4392V75.2941H558.482H561.118H563.737H564.882C564.882 75.2941 564.882 75.6758 564.882 76.4392V75.2941C564.882 75.2941 564.882 74.9176 564.882 74.1647V71.5294V68.9098V67.7647C564.882 67.7647 564.882 67.3882 564.882 66.6353V64V61.3804V60.2353C564.882 60.2353 564.882 59.8588 564.882 59.1059V56.4706V53.851V52.7059C564.882 52.7059 564.882 52.3294 564.882 51.5765V48.9412V46.3216V45.1765C564.882 45.1765 564.882 44.8 564.882 44.0471V41.4118V38.7921V37.647C564.882 37.647 564.882 37.2706 564.882 36.5176V33.8823V31.2627V30.1176H566.012H568.647H571.267H572.412C572.412 30.1176 572.412 30.4993 572.412 31.2627V33.8823V36.5176V37.647C572.412 37.647 572.03 37.647 571.267 37.647H572.412C572.412 37.647 572.412 38.0287 572.412 38.7921V41.4118V44.0471V45.1765C572.412 45.1765 572.03 45.1765 571.267 45.1765H572.412C572.412 45.1765 572.412 45.5582 572.412 46.3216V48.9412V51.5765V52.7059C572.412 52.7059 572.03 52.7059 571.267 52.7059H572.412C572.412 52.7059 572.412 53.0876 572.412 53.851V56.4706V59.1059V60.2353C572.412 60.2353 572.03 60.2353 571.267 60.2353H572.412C572.412 60.2353 572.412 60.617 572.412 61.3804V64V66.6353V67.7647C572.412 67.7647 572.03 67.7647 571.267 67.7647H572.412C572.412 67.7647 572.412 68.1464 572.412 68.9098V71.5294V74.1647V75.2941C572.412 75.2941 572.03 75.2941 571.267 75.2941H572.412C572.412 75.2941 572.412 75.6758 572.412 76.4392V79.0588V81.6941V82.8235C572.412 82.8235 572.03 82.8235 571.267 82.8235H572.412C572.412 82.8235 572.412 83.2052 572.412 83.9686V86.5882V89.2235V90.3529C572.412 90.3529 572.03 90.3529 571.267 90.3529H568.647H566.012H564.882C564.882 90.3529 564.882 89.9765 564.882 89.2235V86.5882V83.9686V82.8235C564.882 82.8235 564.882 82.4471 564.882 81.6941V82.8235C564.882 82.8235 564.501 82.8235 563.737 82.8235H561.118H558.482H557.353ZM587.515 90.3529C587.515 90.3529 587.515 89.9765 587.515 89.2235V86.5882V83.9686V82.8235C587.515 82.8235 587.515 82.4471 587.515 81.6941V79.0588V76.4392V75.2941C587.515 75.2941 587.515 74.9176 587.515 74.1647V71.5294V68.9098V67.7647C587.515 67.7647 587.515 67.3882 587.515 66.6353V64V61.3804V60.2353C587.515 60.2353 587.515 59.8588 587.515 59.1059V56.4706V53.851V52.7059C587.515 52.7059 587.515 52.3294 587.515 51.5765V48.9412V46.3216V45.1765C587.515 45.1765 587.515 44.8 587.515 44.0471V41.4118V38.7921V37.647H588.644H591.279H593.899H595.044C595.044 37.647 595.044 38.0287 595.044 38.7921V41.4118V44.0471V45.1765C595.044 45.1765 594.662 45.1765 593.899 45.1765H595.044C595.044 45.1765 595.044 45.5582 595.044 46.3216V48.9412V51.5765V52.7059C595.044 52.7059 594.662 52.7059 593.899 52.7059H595.044C595.044 52.7059 595.044 53.0876 595.044 53.851V56.4706V59.1059V60.2353C595.044 60.2353 594.662 60.2353 593.899 60.2353H595.044C595.044 60.2353 595.044 60.617 595.044 61.3804V64V66.6353V67.7647C595.044 67.7647 594.662 67.7647 593.899 67.7647H595.044C595.044 67.7647 595.044 68.1464 595.044 68.9098V71.5294V74.1647V75.2941C595.044 75.2941 594.662 75.2941 593.899 75.2941H595.044C595.044 75.2941 595.044 75.6758 595.044 76.4392V79.0588V81.6941V82.8235C595.044 82.8235 594.662 82.8235 593.899 82.8235H595.044C595.044 82.8235 595.044 83.2052 595.044 83.9686V86.5882V89.2235V90.3529C595.044 90.3529 594.662 90.3529 593.899 90.3529H591.279H588.644H587.515ZM610.103 52.7059C610.103 52.7059 610.103 52.3294 610.103 51.5765V48.9412V46.3216V45.1765C610.103 45.1765 610.103 44.8 610.103 44.0471V41.4118V38.7921V37.647H611.232H613.868H616.487H617.632C617.632 37.647 617.632 38.0287 617.632 38.7921V41.4118V44.0471V45.1765C617.632 45.1765 617.251 45.1765 616.487 45.1765H617.632C617.632 45.1765 617.632 45.5582 617.632 46.3216V48.9412V51.5765V52.7059C617.632 52.7059 617.251 52.7059 616.487 52.7059H613.868H611.232H610.103ZM595.044 37.647C595.044 37.647 595.044 37.2706 595.044 36.5176V33.8823V31.2627V30.1176H596.174H598.809H601.428H602.574C602.574 30.1176 602.574 30.4993 602.574 31.2627V30.1176H603.703H606.338H608.958H610.103C610.103 30.1176 610.103 30.4993 610.103 31.2627V33.8823V36.5176V37.647C610.103 37.647 609.721 37.647 608.958 37.647H606.338H603.703H602.574C602.574 37.647 602.574 37.2706 602.574 36.5176V37.647C602.574 37.647 602.192 37.647 601.428 37.647H598.809H596.174H595.044ZM651.515 90.3529C651.515 90.3529 651.515 89.9765 651.515 89.2235V86.5882V83.9686V82.8235C651.515 82.8235 651.515 82.4471 651.515 81.6941V79.0588V76.4392V75.2941C651.515 75.2941 651.515 74.9176 651.515 74.1647V71.5294V68.9098V67.7647C651.515 67.7647 651.515 67.3882 651.515 66.6353V64V61.3804V60.2353C651.515 60.2353 651.515 59.8588 651.515 59.1059V56.4706V53.851V52.7059C651.515 52.7059 651.515 52.3294 651.515 51.5765V48.9412V46.3216V45.1765C651.515 45.1765 651.515 44.8 651.515 44.0471V41.4118V38.7921V37.647C651.515 37.647 651.515 37.2706 651.515 36.5176V33.8823V31.2627V30.1176H652.644H655.279H657.899H659.044C659.044 30.1176 659.044 30.4993 659.044 31.2627V33.8823V36.5176V37.647C659.044 37.647 658.662 37.647 657.899 37.647H659.044C659.044 37.647 659.044 38.0287 659.044 38.7921V37.647H660.174H662.809H665.428H666.574C666.574 37.647 666.574 38.0287 666.574 38.7921V41.4118V44.0471V45.1765C666.574 45.1765 666.192 45.1765 665.428 45.1765H662.809H660.174H659.044C659.044 45.1765 659.044 44.8 659.044 44.0471V45.1765C659.044 45.1765 658.662 45.1765 657.899 45.1765H659.044C659.044 45.1765 659.044 45.5582 659.044 46.3216V48.9412V51.5765V52.7059C659.044 52.7059 658.662 52.7059 657.899 52.7059H659.044C659.044 52.7059 659.044 53.0876 659.044 53.851V56.4706V59.1059V60.2353C659.044 60.2353 658.662 60.2353 657.899 60.2353H659.044C659.044 60.2353 659.044 60.617 659.044 61.3804V64V66.6353V67.7647C659.044 67.7647 658.662 67.7647 657.899 67.7647H659.044C659.044 67.7647 659.044 68.1464 659.044 68.9098V71.5294V74.1647V75.2941C659.044 75.2941 658.662 75.2941 657.899 75.2941H659.044C659.044 75.2941 659.044 75.6758 659.044 76.4392V79.0588V81.6941V82.8235C659.044 82.8235 658.662 82.8235 657.899 82.8235H659.044C659.044 82.8235 659.044 83.2052 659.044 83.9686V86.5882V89.2235V90.3529C659.044 90.3529 658.662 90.3529 657.899 90.3529H655.279H652.644H651.515ZM681.632 90.3529C681.632 90.3529 681.632 89.9765 681.632 89.2235V86.5882V83.9686V82.8235C681.632 82.8235 681.632 82.4471 681.632 81.6941V79.0588V76.4392V75.2941C681.632 75.2941 681.632 74.9176 681.632 74.1647V71.5294V68.9098V67.7647C681.632 67.7647 681.632 67.3882 681.632 66.6353V64V61.3804V60.2353C681.632 60.2353 681.632 59.8588 681.632 59.1059V56.4706V53.851V52.7059C681.632 52.7059 681.632 52.3294 681.632 51.5765V48.9412V46.3216V45.1765C681.632 45.1765 681.632 44.8 681.632 44.0471V41.4118V38.7921V37.647H682.762H685.397H688.017H689.162C689.162 37.647 689.162 38.0287 689.162 38.7921V37.647H690.291H692.926H695.546H696.691C696.691 37.647 696.691 38.0287 696.691 38.7921V41.4118V44.0471V45.1765C696.691 45.1765 696.309 45.1765 695.546 45.1765H692.926H690.291H689.162C689.162 45.1765 689.162 44.8 689.162 44.0471V45.1765C689.162 45.1765 688.78 45.1765 688.017 45.1765H689.162C689.162 45.1765 689.162 45.5582 689.162 46.3216V48.9412V51.5765V52.7059C689.162 52.7059 688.78 52.7059 688.017 52.7059H689.162C689.162 52.7059 689.162 53.0876 689.162 53.851V56.4706V59.1059V60.2353C689.162 60.2353 688.78 60.2353 688.017 60.2353H689.162C689.162 60.2353 689.162 60.617 689.162 61.3804V64V66.6353V67.7647C689.162 67.7647 688.78 67.7647 688.017 67.7647H689.162C689.162 67.7647 689.162 68.1464 689.162 68.9098V71.5294V74.1647V75.2941C689.162 75.2941 688.78 75.2941 688.017 75.2941H689.162C689.162 75.2941 689.162 75.6758 689.162 76.4392V79.0588V81.6941V82.8235C689.162 82.8235 688.78 82.8235 688.017 82.8235H689.162C689.162 82.8235 689.162 83.2052 689.162 83.9686V86.5882V89.2235V90.3529C689.162 90.3529 688.78 90.3529 688.017 90.3529H685.397H682.762H681.632ZM711.75 90.3529C711.75 90.3529 711.75 89.9765 711.75 89.2235V86.5882V83.9686V82.8235C711.75 82.8235 711.75 82.4471 711.75 81.6941V79.0588V76.4392V75.2941C711.75 75.2941 711.75 74.9176 711.75 74.1647V71.5294V68.9098V67.7647C711.75 67.7647 711.75 67.3882 711.75 66.6353V64V61.3804V60.2353C711.75 60.2353 711.75 59.8588 711.75 59.1059V56.4706V53.851V52.7059C711.75 52.7059 711.75 52.3294 711.75 51.5765V48.9412V46.3216V45.1765C711.75 45.1765 711.75 44.8 711.75 44.0471V41.4118V38.7921V37.647H712.879H715.515H718.134H719.279C719.279 37.647 719.279 38.0287 719.279 38.7921V41.4118V44.0471V45.1765C719.279 45.1765 718.898 45.1765 718.134 45.1765H719.279C719.279 45.1765 719.279 45.5582 719.279 46.3216V48.9412V51.5765V52.7059C719.279 52.7059 718.898 52.7059 718.134 52.7059H719.279C719.279 52.7059 719.279 53.0876 719.279 53.851V56.4706V59.1059V60.2353C719.279 60.2353 718.898 60.2353 718.134 60.2353H719.279C719.279 60.2353 719.279 60.617 719.279 61.3804V64V66.6353V67.7647C719.279 67.7647 718.898 67.7647 718.134 67.7647H719.279C719.279 67.7647 719.279 68.1464 719.279 68.9098V71.5294V74.1647V75.2941C719.279 75.2941 718.898 75.2941 718.134 75.2941H719.279C719.279 75.2941 719.279 75.6758 719.279 76.4392V79.0588V81.6941V82.8235C719.279 82.8235 718.898 82.8235 718.134 82.8235H719.279C719.279 82.8235 719.279 83.2052 719.279 83.9686V86.5882V89.2235V90.3529C719.279 90.3529 718.898 90.3529 718.134 90.3529H715.515H712.879H711.75ZM666.574 37.647C666.574 37.647 666.574 37.2706 666.574 36.5176V33.8823V31.2627V30.1176H667.703H670.338H672.958H674.103C674.103 30.1176 674.103 30.4993 674.103 31.2627V30.1176H675.232H677.868H680.487H681.632C681.632 30.1176 681.632 30.4993 681.632 31.2627V33.8823V36.5176V37.647C681.632 37.647 681.251 37.647 680.487 37.647H677.868H675.232H674.103C674.103 37.647 674.103 37.2706 674.103 36.5176V37.647C674.103 37.647 673.721 37.647 672.958 37.647H670.338H667.703H666.574ZM696.691 37.647C696.691 37.647 696.691 37.2706 696.691 36.5176V33.8823V31.2627V30.1176H697.821H700.456H703.075H704.221C704.221 30.1176 704.221 30.4993 704.221 31.2627V30.1176H705.35H707.985H710.605H711.75C711.75 30.1176 711.75 30.4993 711.75 31.2627V33.8823V36.5176V37.647C711.75 37.647 711.368 37.647 710.605 37.647H707.985H705.35H704.221C704.221 37.647 704.221 37.2706 704.221 36.5176V37.647C704.221 37.647 703.839 37.647 703.075 37.647H700.456H697.821H696.691ZM734.39 90.3529C734.39 90.3529 734.39 89.9765 734.39 89.2235V86.5882V83.9686V82.8235C734.39 82.8235 734.39 82.4471 734.39 81.6941V79.0588V76.4392V75.2941C734.39 75.2941 734.39 74.9176 734.39 74.1647V71.5294V68.9098V67.7647C734.39 67.7647 734.39 67.3882 734.39 66.6353V64V61.3804V60.2353C734.39 60.2353 734.39 59.8588 734.39 59.1059V56.4706V53.851V52.7059C734.39 52.7059 734.39 52.3294 734.39 51.5765V48.9412V46.3216V45.1765C734.39 45.1765 734.39 44.8 734.39 44.0471V41.4118V38.7921V37.647C734.39 37.647 734.39 37.2706 734.39 36.5176V33.8823V31.2627V30.1176H735.519H738.154H740.774H741.919C741.919 30.1176 741.919 30.4993 741.919 31.2627V33.8823V36.5176V37.647C741.919 37.647 741.537 37.647 740.774 37.647H741.919C741.919 37.647 741.919 38.0287 741.919 38.7921V41.4118V44.0471V45.1765C741.919 45.1765 741.537 45.1765 740.774 45.1765H741.919C741.919 45.1765 741.919 45.5582 741.919 46.3216V48.9412V51.5765V52.7059C741.919 52.7059 741.537 52.7059 740.774 52.7059H741.919C741.919 52.7059 741.919 53.0876 741.919 53.851V56.4706V59.1059V60.2353C741.919 60.2353 741.537 60.2353 740.774 60.2353H741.919C741.919 60.2353 741.919 60.617 741.919 61.3804V64V66.6353V67.7647C741.919 67.7647 741.537 67.7647 740.774 67.7647H741.919C741.919 67.7647 741.919 68.1464 741.919 68.9098V71.5294V74.1647V75.2941C741.919 75.2941 741.537 75.2941 740.774 75.2941H741.919C741.919 75.2941 741.919 75.6758 741.919 76.4392V79.0588V81.6941V82.8235C741.919 82.8235 741.537 82.8235 740.774 82.8235H741.919C741.919 82.8235 741.919 83.2052 741.919 83.9686V86.5882V89.2235V90.3529C741.919 90.3529 741.537 90.3529 740.774 90.3529H738.154H735.519H734.39ZM734.39 22.5882C734.39 22.5882 734.39 22.2118 734.39 21.4588V18.8235V16.2039V15.0588C734.39 15.0588 734.39 14.6823 734.39 13.9294V11.2941V8.6745V7.5294H735.519H738.154H740.774H741.919C741.919 7.5294 741.919 7.9111 741.919 8.6745V11.2941V13.9294V15.0588C741.919 15.0588 741.537 15.0588 740.774 15.0588H741.919C741.919 15.0588 741.919 15.4405 741.919 16.2039V18.8235V21.4588V22.5882C741.919 22.5882 741.537 22.5882 740.774 22.5882H738.154H735.519H734.39ZM757.015 90.3529C757.015 90.3529 757.015 89.9765 757.015 89.2235V86.5882V83.9686V82.8235C757.015 82.8235 757.015 82.4471 757.015 81.6941V79.0588V76.4392V75.2941C757.015 75.2941 757.015 74.9176 757.015 74.1647V71.5294V68.9098V67.7647C757.015 67.7647 757.015 67.3882 757.015 66.6353V64V61.3804V60.2353C757.015 60.2353 757.015 59.8588 757.015 59.1059V56.4706V53.851V52.7059C757.015 52.7059 757.015 52.3294 757.015 51.5765V48.9412V46.3216V45.1765C757.015 45.1765 757.015 44.8 757.015 44.0471V41.4118V38.7921V37.647C757.015 37.647 757.015 37.2706 757.015 36.5176V33.8823V31.2627V30.1176H758.144H760.779H763.399H764.544C764.544 30.1176 764.544 30.4993 764.544 31.2627V33.8823V36.5176V37.647C764.544 37.647 764.162 37.647 763.399 37.647H764.544C764.544 37.647 764.544 38.0287 764.544 38.7921V37.647H765.674H768.309H770.928H772.074C772.074 37.647 772.074 38.0287 772.074 38.7921V41.4118V44.0471V45.1765C772.074 45.1765 771.692 45.1765 770.928 45.1765H768.309H765.674H764.544C764.544 45.1765 764.544 44.8 764.544 44.0471V45.1765C764.544 45.1765 764.162 45.1765 763.399 45.1765H764.544C764.544 45.1765 764.544 45.5582 764.544 46.3216V48.9412V51.5765V52.7059C764.544 52.7059 764.162 52.7059 763.399 52.7059H764.544C764.544 52.7059 764.544 53.0876 764.544 53.851V56.4706V59.1059V60.2353C764.544 60.2353 764.162 60.2353 763.399 60.2353H764.544C764.544 60.2353 764.544 60.617 764.544 61.3804V64V66.6353V67.7647C764.544 67.7647 764.162 67.7647 763.399 67.7647H764.544C764.544 67.7647 764.544 68.1464 764.544 68.9098V71.5294V74.1647V75.2941C764.544 75.2941 764.162 75.2941 763.399 75.2941H764.544C764.544 75.2941 764.544 75.6758 764.544 76.4392V79.0588V81.6941V82.8235C764.544 82.8235 764.162 82.8235 763.399 82.8235H764.544C764.544 82.8235 764.544 83.2052 764.544 83.9686V86.5882V89.2235V90.3529C764.544 90.3529 764.162 90.3529 763.399 90.3529H760.779H758.144H757.015ZM787.132 90.3529C787.132 90.3529 787.132 89.9765 787.132 89.2235V86.5882V83.9686V82.8235C787.132 82.8235 787.132 82.4471 787.132 81.6941V79.0588V76.4392V75.2941C787.132 75.2941 787.132 74.9176 787.132 74.1647V71.5294V68.9098V67.7647C787.132 67.7647 787.132 67.3882 787.132 66.6353V64V61.3804V60.2353C787.132 60.2353 787.132 59.8588 787.132 59.1059V56.4706V53.851V52.7059C787.132 52.7059 787.132 52.3294 787.132 51.5765V48.9412V46.3216V45.1765C787.132 45.1765 787.132 44.8 787.132 44.0471V41.4118V38.7921V37.647H788.262H790.897H793.517H794.662C794.662 37.647 794.662 38.0287 794.662 38.7921V41.4118V44.0471V45.1765C794.662 45.1765 794.28 45.1765 793.517 45.1765H794.662C794.662 45.1765 794.662 45.5582 794.662 46.3216V48.9412V51.5765V52.7059C794.662 52.7059 794.28 52.7059 793.517 52.7059H794.662C794.662 52.7059 794.662 53.0876 794.662 53.851V56.4706V59.1059V60.2353C794.662 60.2353 794.28 60.2353 793.517 60.2353H794.662C794.662 60.2353 794.662 60.617 794.662 61.3804V64V66.6353V67.7647C794.662 67.7647 794.28 67.7647 793.517 67.7647H794.662C794.662 67.7647 794.662 68.1464 794.662 68.9098V71.5294V74.1647V75.2941C794.662 75.2941 794.28 75.2941 793.517 75.2941H794.662C794.662 75.2941 794.662 75.6758 794.662 76.4392V79.0588V81.6941V82.8235C794.662 82.8235 794.28 82.8235 793.517 82.8235H794.662C794.662 82.8235 794.662 83.2052 794.662 83.9686V86.5882V89.2235V90.3529C794.662 90.3529 794.28 90.3529 793.517 90.3529H790.897H788.262H787.132ZM772.074 37.647C772.074 37.647 772.074 37.2706 772.074 36.5176V33.8823V31.2627V30.1176H773.203H775.838H778.458H779.603C779.603 30.1176 779.603 30.4993 779.603 31.2627V30.1176H780.732H783.368H785.987H787.132C787.132 30.1176 787.132 30.4993 787.132 31.2627V33.8823V36.5176V37.647C787.132 37.647 786.751 37.647 785.987 37.647H783.368H780.732H779.603C779.603 37.647 779.603 37.2706 779.603 36.5176V37.647C779.603 37.647 779.221 37.647 778.458 37.647H775.838H773.203H772.074ZM817.294 90.3529C817.294 90.3529 817.294 89.9765 817.294 89.2235V86.5882V83.9686V82.8235H818.424H821.059H823.678H824.824C824.824 82.8235 824.824 83.2052 824.824 83.9686V82.8235H825.953H828.588H831.208H832.353C832.353 82.8235 832.353 83.2052 832.353 83.9686V86.5882V89.2235V90.3529C832.353 90.3529 831.971 90.3529 831.208 90.3529H828.588H825.953H824.824C824.824 90.3529 824.824 89.9765 824.824 89.2235V90.3529C824.824 90.3529 824.442 90.3529 823.678 90.3529H821.059H818.424H817.294ZM809.765 82.8235C809.765 82.8235 809.765 82.4471 809.765 81.6941V79.0588V76.4392V75.2941C809.765 75.2941 809.765 74.9176 809.765 74.1647V71.5294V68.9098V67.7647C809.765 67.7647 809.765 67.3882 809.765 66.6353V64V61.3804V60.2353C809.765 60.2353 809.765 59.8588 809.765 59.1059V56.4706V53.851V52.7059C809.765 52.7059 809.765 52.3294 809.765 51.5765V48.9412V46.3216V45.1765C809.765 45.1765 809.765 44.8 809.765 44.0471V41.4118V38.7921V37.647H810.894H813.529H816.149H817.294C817.294 37.647 817.294 38.0287 817.294 38.7921V41.4118V44.0471V45.1765C817.294 45.1765 816.912 45.1765 816.149 45.1765H817.294C817.294 45.1765 817.294 45.5582 817.294 46.3216V48.9412V51.5765V52.7059C817.294 52.7059 816.912 52.7059 816.149 52.7059H817.294C817.294 52.7059 817.294 53.0876 817.294 53.851V56.4706V59.1059V60.2353C817.294 60.2353 816.912 60.2353 816.149 60.2353H817.294C817.294 60.2353 817.294 60.617 817.294 61.3804V64V66.6353V67.7647C817.294 67.7647 816.912 67.7647 816.149 67.7647H817.294C817.294 67.7647 817.294 68.1464 817.294 68.9098V71.5294V74.1647V75.2941C817.294 75.2941 816.912 75.2941 816.149 75.2941H817.294C817.294 75.2941 817.294 75.6758 817.294 76.4392V79.0588V81.6941V82.8235C817.294 82.8235 816.912 82.8235 816.149 82.8235H813.529H810.894H809.765ZM832.353 45.1765C832.353 45.1765 832.353 44.8 832.353 44.0471V41.4118V38.7921V37.647H833.482H836.118H838.737H839.882C839.882 37.647 839.882 38.0287 839.882 38.7921V37.647C839.882 37.647 839.882 37.2706 839.882 36.5176V33.8823V31.2627V30.1176C839.882 30.1176 839.882 29.7412 839.882 28.9882V26.3529V23.7333V22.5882C839.882 22.5882 839.882 22.2118 839.882 21.4588V18.8235V16.2039V15.0588C839.882 15.0588 839.882 14.6823 839.882 13.9294V11.2941V8.6745V7.5294C839.882 7.5294 839.882 7.15293 839.882 6.39999V3.76469V1.14509V-7.62939e-06H841.012H843.647H846.267H847.412C847.412 -7.62939e-06 847.412 0.381691 847.412 1.14509V3.76469V6.39999V7.5294C847.412 7.5294 847.03 7.5294 846.267 7.5294H847.412C847.412 7.5294 847.412 7.9111 847.412 8.6745V11.2941V13.9294V15.0588C847.412 15.0588 847.03 15.0588 846.267 15.0588H847.412C847.412 15.0588 847.412 15.4405 847.412 16.2039V18.8235V21.4588V22.5882C847.412 22.5882 847.03 22.5882 846.267 22.5882H847.412C847.412 22.5882 847.412 22.9699 847.412 23.7333V26.3529V28.9882V30.1176C847.412 30.1176 847.03 30.1176 846.267 30.1176H847.412C847.412 30.1176 847.412 30.4993 847.412 31.2627V33.8823V36.5176V37.647C847.412 37.647 847.03 37.647 846.267 37.647H847.412C847.412 37.647 847.412 38.0287 847.412 38.7921V41.4118V44.0471V45.1765C847.412 45.1765 847.03 45.1765 846.267 45.1765H847.412C847.412 45.1765 847.412 45.5582 847.412 46.3216V48.9412V51.5765V52.7059C847.412 52.7059 847.03 52.7059 846.267 52.7059H847.412C847.412 52.7059 847.412 53.0876 847.412 53.851V56.4706V59.1059V60.2353C847.412 60.2353 847.03 60.2353 846.267 60.2353H847.412C847.412 60.2353 847.412 60.617 847.412 61.3804V64V66.6353V67.7647C847.412 67.7647 847.03 67.7647 846.267 67.7647H847.412C847.412 67.7647 847.412 68.1464 847.412 68.9098V71.5294V74.1647V75.2941C847.412 75.2941 847.03 75.2941 846.267 75.2941H847.412C847.412 75.2941 847.412 75.6758 847.412 76.4392V79.0588V81.6941V82.8235C847.412 82.8235 847.03 82.8235 846.267 82.8235H847.412C847.412 82.8235 847.412 83.2052 847.412 83.9686V86.5882V89.2235V90.3529C847.412 90.3529 847.03 90.3529 846.267 90.3529H843.647H841.012H839.882C839.882 90.3529 839.882 89.9765 839.882 89.2235V86.5882V83.9686V82.8235C839.882 82.8235 839.882 82.4471 839.882 81.6941V82.8235C839.882 82.8235 839.501 82.8235 838.737 82.8235H836.118H833.482H832.353C832.353 82.8235 832.353 82.4471 832.353 81.6941V79.0588V76.4392V75.2941H833.482H836.118H838.737H839.882C839.882 75.2941 839.882 75.6758 839.882 76.4392V75.2941C839.882 75.2941 839.882 74.9176 839.882 74.1647V71.5294V68.9098V67.7647C839.882 67.7647 839.882 67.3882 839.882 66.6353V64V61.3804V60.2353C839.882 60.2353 839.882 59.8588 839.882 59.1059V56.4706V53.851V52.7059C839.882 52.7059 839.882 52.3294 839.882 51.5765V48.9412V46.3216V45.1765C839.882 45.1765 839.882 44.8 839.882 44.0471V45.1765C839.882 45.1765 839.501 45.1765 838.737 45.1765H836.118H833.482H832.353ZM817.294 37.647C817.294 37.647 817.294 37.2706 817.294 36.5176V33.8823V31.2627V30.1176H818.424H821.059H823.678H824.824C824.824 30.1176 824.824 30.4993 824.824 31.2627V30.1176H825.953H828.588H831.208H832.353C832.353 30.1176 832.353 30.4993 832.353 31.2627V33.8823V36.5176V37.647C832.353 37.647 831.971 37.647 831.208 37.647H828.588H825.953H824.824C824.824 37.647 824.824 37.2706 824.824 36.5176V37.647C824.824 37.647 824.442 37.647 823.678 37.647H821.059H818.424H817.294ZM896.434 90.3529C896.434 90.3529 896.434 89.9765 896.434 89.2235V86.5882V83.9686V82.8235H897.563H900.199H902.818H903.963C903.963 82.8235 903.963 83.2052 903.963 83.9686V82.8235H905.093H907.728H910.348H911.493C911.493 82.8235 911.493 83.2052 911.493 83.9686V86.5882V89.2235V90.3529C911.493 90.3529 911.111 90.3529 910.348 90.3529H907.728H905.093H903.963C903.963 90.3529 903.963 89.9765 903.963 89.2235V90.3529C903.963 90.3529 903.582 90.3529 902.818 90.3529H900.199H897.563H896.434ZM881.375 37.647C881.375 37.647 881.375 37.2706 881.375 36.5176V33.8823V31.2627V30.1176H882.504H885.14H887.759H888.904C888.904 30.1176 888.904 30.4993 888.904 31.2627V30.1176C888.904 30.1176 888.904 29.7412 888.904 28.9882V26.3529V23.7333V22.5882C888.904 22.5882 888.904 22.2118 888.904 21.4588V18.8235V16.2039V15.0588H890.034H892.669H895.289H896.434C896.434 15.0588 896.434 15.4405 896.434 16.2039V18.8235V21.4588V22.5882C896.434 22.5882 896.052 22.5882 895.289 22.5882H896.434C896.434 22.5882 896.434 22.9699 896.434 23.7333V26.3529V28.9882V30.1176C896.434 30.1176 896.052 30.1176 895.289 30.1176H896.434C896.434 30.1176 896.434 30.4993 896.434 31.2627V30.1176H897.563H900.199H902.818H903.963C903.963 30.1176 903.963 30.4993 903.963 31.2627V30.1176H905.093H907.728H910.348H911.493C911.493 30.1176 911.493 30.4993 911.493 31.2627V33.8823V36.5176V37.647C911.493 37.647 911.111 37.647 910.348 37.647H907.728H905.093H903.963C903.963 37.647 903.963 37.2706 903.963 36.5176V37.647C903.963 37.647 903.582 37.647 902.818 37.647H900.199H897.563H896.434C896.434 37.647 896.434 37.2706 896.434 36.5176V37.647C896.434 37.647 896.052 37.647 895.289 37.647H896.434C896.434 37.647 896.434 38.0287 896.434 38.7921V41.4118V44.0471V45.1765C896.434 45.1765 896.052 45.1765 895.289 45.1765H896.434C896.434 45.1765 896.434 45.5582 896.434 46.3216V48.9412V51.5765V52.7059C896.434 52.7059 896.052 52.7059 895.289 52.7059H896.434C896.434 52.7059 896.434 53.0876 896.434 53.851V56.4706V59.1059V60.2353C896.434 60.2353 896.052 60.2353 895.289 60.2353H896.434C896.434 60.2353 896.434 60.617 896.434 61.3804V64V66.6353V67.7647C896.434 67.7647 896.052 67.7647 895.289 67.7647H896.434C896.434 67.7647 896.434 68.1464 896.434 68.9098V71.5294V74.1647V75.2941C896.434 75.2941 896.052 75.2941 895.289 75.2941H896.434C896.434 75.2941 896.434 75.6758 896.434 76.4392V79.0588V81.6941V82.8235C896.434 82.8235 896.052 82.8235 895.289 82.8235H892.669H890.034H888.904C888.904 82.8235 888.904 82.4471 888.904 81.6941V79.0588V76.4392V75.2941C888.904 75.2941 888.904 74.9176 888.904 74.1647V71.5294V68.9098V67.7647C888.904 67.7647 888.904 67.3882 888.904 66.6353V64V61.3804V60.2353C888.904 60.2353 888.904 59.8588 888.904 59.1059V56.4706V53.851V52.7059C888.904 52.7059 888.904 52.3294 888.904 51.5765V48.9412V46.3216V45.1765C888.904 45.1765 888.904 44.8 888.904 44.0471V41.4118V38.7921V37.647C888.904 37.647 888.904 37.2706 888.904 36.5176V37.647C888.904 37.647 888.523 37.647 887.759 37.647H885.14H882.504H881.375ZM930.294 90.3529C930.294 90.3529 930.294 89.9765 930.294 89.2235V86.5882V83.9686V82.8235H931.424H934.059H936.678H937.824C937.824 82.8235 937.824 83.2052 937.824 83.9686V82.8235H938.953H941.588H944.208H945.353C945.353 82.8235 945.353 83.2052 945.353 83.9686V82.8235H946.482H949.118H951.737H952.882C952.882 82.8235 952.882 83.2052 952.882 83.9686V86.5882V89.2235V90.3529C952.882 90.3529 952.501 90.3529 951.737 90.3529H949.118H946.482H945.353C945.353 90.3529 945.353 89.9765 945.353 89.2235V90.3529C945.353 90.3529 944.971 90.3529 944.208 90.3529H941.588H938.953H937.824C937.824 90.3529 937.824 89.9765 937.824 89.2235V90.3529C937.824 90.3529 937.442 90.3529 936.678 90.3529H934.059H931.424H930.294ZM922.765 82.8235C922.765 82.8235 922.765 82.4471 922.765 81.6941V79.0588V76.4392V75.2941C922.765 75.2941 922.765 74.9176 922.765 74.1647V71.5294V68.9098V67.7647C922.765 67.7647 922.765 67.3882 922.765 66.6353V64V61.3804V60.2353C922.765 60.2353 922.765 59.8588 922.765 59.1059V56.4706V53.851V52.7059C922.765 52.7059 922.765 52.3294 922.765 51.5765V48.9412V46.3216V45.1765C922.765 45.1765 922.765 44.8 922.765 44.0471V41.4118V38.7921V37.647H923.894H926.529H929.149H930.294C930.294 37.647 930.294 38.0287 930.294 38.7921V41.4118V44.0471V45.1765C930.294 45.1765 929.912 45.1765 929.149 45.1765H930.294C930.294 45.1765 930.294 45.5582 930.294 46.3216V48.9412V51.5765V52.7059C930.294 52.7059 929.912 52.7059 929.149 52.7059H930.294C930.294 52.7059 930.294 53.0876 930.294 53.851V56.4706V59.1059V60.2353C930.294 60.2353 929.912 60.2353 929.149 60.2353H930.294C930.294 60.2353 930.294 60.617 930.294 61.3804V64V66.6353V67.7647C930.294 67.7647 929.912 67.7647 929.149 67.7647H930.294C930.294 67.7647 930.294 68.1464 930.294 68.9098V71.5294V74.1647V75.2941C930.294 75.2941 929.912 75.2941 929.149 75.2941H930.294C930.294 75.2941 930.294 75.6758 930.294 76.4392V79.0588V81.6941V82.8235C930.294 82.8235 929.912 82.8235 929.149 82.8235H926.529H923.894H922.765ZM952.882 82.8235C952.882 82.8235 952.882 82.4471 952.882 81.6941V79.0588V76.4392V75.2941C952.882 75.2941 952.882 74.9176 952.882 74.1647V71.5294V68.9098V67.7647C952.882 67.7647 952.882 67.3882 952.882 66.6353V64V61.3804V60.2353C952.882 60.2353 952.882 59.8588 952.882 59.1059V56.4706V53.851V52.7059C952.882 52.7059 952.882 52.3294 952.882 51.5765V48.9412V46.3216V45.1765C952.882 45.1765 952.882 44.8 952.882 44.0471V41.4118V38.7921V37.647H954.012H956.647H959.267H960.412C960.412 37.647 960.412 38.0287 960.412 38.7921V41.4118V44.0471V45.1765C960.412 45.1765 960.03 45.1765 959.267 45.1765H960.412C960.412 45.1765 960.412 45.5582 960.412 46.3216V48.9412V51.5765V52.7059C960.412 52.7059 960.03 52.7059 959.267 52.7059H960.412C960.412 52.7059 960.412 53.0876 960.412 53.851V56.4706V59.1059V60.2353C960.412 60.2353 960.03 60.2353 959.267 60.2353H960.412C960.412 60.2353 960.412 60.617 960.412 61.3804V64V66.6353V67.7647C960.412 67.7647 960.03 67.7647 959.267 67.7647H960.412C960.412 67.7647 960.412 68.1464 960.412 68.9098V71.5294V74.1647V75.2941C960.412 75.2941 960.03 75.2941 959.267 75.2941H960.412C960.412 75.2941 960.412 75.6758 960.412 76.4392V79.0588V81.6941V82.8235C960.412 82.8235 960.03 82.8235 959.267 82.8235H956.647H954.012H952.882ZM930.294 37.647C930.294 37.647 930.294 37.2706 930.294 36.5176V33.8823V31.2627V30.1176H931.424H934.059H936.678H937.824C937.824 30.1176 937.824 30.4993 937.824 31.2627V30.1176H938.953H941.588H944.208H945.353C945.353 30.1176 945.353 30.4993 945.353 31.2627V30.1176H946.482H949.118H951.737H952.882C952.882 30.1176 952.882 30.4993 952.882 31.2627V33.8823V36.5176V37.647C952.882 37.647 952.501 37.647 951.737 37.647H949.118H946.482H945.353C945.353 37.647 945.353 37.2706 945.353 36.5176V37.647C945.353 37.647 944.971 37.647 944.208 37.647H941.588H938.953H937.824C937.824 37.647 937.824 37.2706 937.824 36.5176V37.647C937.824 37.647 937.442 37.647 936.678 37.647H934.059H931.424H930.294ZM983.044 90.3529C983.044 90.3529 983.044 89.9765 983.044 89.2235V86.5882V83.9686V82.8235H984.174H986.809H989.428H990.574C990.574 82.8235 990.574 83.2052 990.574 83.9686V82.8235H991.703H994.338H996.958H998.103C998.103 82.8235 998.103 83.2052 998.103 83.9686V86.5882V89.2235V90.3529C998.103 90.3529 997.721 90.3529 996.958 90.3529H994.338H991.703H990.574C990.574 90.3529 990.574 89.9765 990.574 89.2235V90.3529C990.574 90.3529 990.192 90.3529 989.428 90.3529H986.809H984.174H983.044ZM975.515 82.8235C975.515 82.8235 975.515 82.4471 975.515 81.6941V79.0588V76.4392V75.2941C975.515 75.2941 975.515 74.9176 975.515 74.1647V71.5294V68.9098V67.7647C975.515 67.7647 975.515 67.3882 975.515 66.6353V64V61.3804V60.2353C975.515 60.2353 975.515 59.8588 975.515 59.1059V56.4706V53.851V52.7059C975.515 52.7059 975.515 52.3294 975.515 51.5765V48.9412V46.3216V45.1765C975.515 45.1765 975.515 44.8 975.515 44.0471V41.4118V38.7921V37.647H976.644H979.279H981.899H983.044C983.044 37.647 983.044 38.0287 983.044 38.7921V41.4118V44.0471V45.1765C983.044 45.1765 982.662 45.1765 981.899 45.1765H983.044C983.044 45.1765 983.044 45.5582 983.044 46.3216V48.9412V51.5765V52.7059C983.044 52.7059 982.662 52.7059 981.899 52.7059H983.044C983.044 52.7059 983.044 53.0876 983.044 53.851V56.4706V59.1059V60.2353C983.044 60.2353 982.662 60.2353 981.899 60.2353H983.044C983.044 60.2353 983.044 60.617 983.044 61.3804V64V66.6353V67.7647C983.044 67.7647 982.662 67.7647 981.899 67.7647H983.044C983.044 67.7647 983.044 68.1464 983.044 68.9098V71.5294V74.1647V75.2941C983.044 75.2941 982.662 75.2941 981.899 75.2941H983.044C983.044 75.2941 983.044 75.6758 983.044 76.4392V79.0588V81.6941V82.8235C983.044 82.8235 982.662 82.8235 981.899 82.8235H979.279H976.644H975.515ZM998.103 45.1765C998.103 45.1765 998.103 44.8 998.103 44.0471V41.4118V38.7921V37.647H999.232H1001.87H1004.49H1005.63C1005.63 37.647 1005.63 38.0287 1005.63 38.7921V37.647C1005.63 37.647 1005.63 37.2706 1005.63 36.5176V33.8823V31.2627V30.1176C1005.63 30.1176 1005.63 29.7412 1005.63 28.9882V26.3529V23.7333V22.5882C1005.63 22.5882 1005.63 22.2118 1005.63 21.4588V18.8235V16.2039V15.0588C1005.63 15.0588 1005.63 14.6823 1005.63 13.9294V11.2941V8.6745V7.5294C1005.63 7.5294 1005.63 7.15293 1005.63 6.39999V3.76469V1.14509V-7.62939e-06H1006.76H1009.4H1012.02H1013.16C1013.16 -7.62939e-06 1013.16 0.381691 1013.16 1.14509V3.76469V6.39999V7.5294C1013.16 7.5294 1012.78 7.5294 1012.02 7.5294H1013.16C1013.16 7.5294 1013.16 7.9111 1013.16 8.6745V11.2941V13.9294V15.0588C1013.16 15.0588 1012.78 15.0588 1012.02 15.0588H1013.16C1013.16 15.0588 1013.16 15.4405 1013.16 16.2039V18.8235V21.4588V22.5882C1013.16 22.5882 1012.78 22.5882 1012.02 22.5882H1013.16C1013.16 22.5882 1013.16 22.9699 1013.16 23.7333V26.3529V28.9882V30.1176C1013.16 30.1176 1012.78 30.1176 1012.02 30.1176H1013.16C1013.16 30.1176 1013.16 30.4993 1013.16 31.2627V33.8823V36.5176V37.647C1013.16 37.647 1012.78 37.647 1012.02 37.647H1013.16C1013.16 37.647 1013.16 38.0287 1013.16 38.7921V41.4118V44.0471V45.1765C1013.16 45.1765 1012.78 45.1765 1012.02 45.1765H1013.16C1013.16 45.1765 1013.16 45.5582 1013.16 46.3216V48.9412V51.5765V52.7059C1013.16 52.7059 1012.78 52.7059 1012.02 52.7059H1013.16C1013.16 52.7059 1013.16 53.0876 1013.16 53.851V56.4706V59.1059V60.2353C1013.16 60.2353 1012.78 60.2353 1012.02 60.2353H1013.16C1013.16 60.2353 1013.16 60.617 1013.16 61.3804V64V66.6353V67.7647C1013.16 67.7647 1012.78 67.7647 1012.02 67.7647H1013.16C1013.16 67.7647 1013.16 68.1464 1013.16 68.9098V71.5294V74.1647V75.2941C1013.16 75.2941 1012.78 75.2941 1012.02 75.2941H1013.16C1013.16 75.2941 1013.16 75.6758 1013.16 76.4392V79.0588V81.6941V82.8235C1013.16 82.8235 1012.78 82.8235 1012.02 82.8235H1013.16C1013.16 82.8235 1013.16 83.2052 1013.16 83.9686V86.5882V89.2235V90.3529C1013.16 90.3529 1012.78 90.3529 1012.02 90.3529H1009.4H1006.76H1005.63C1005.63 90.3529 1005.63 89.9765 1005.63 89.2235V86.5882V83.9686V82.8235C1005.63 82.8235 1005.63 82.4471 1005.63 81.6941V82.8235C1005.63 82.8235 1005.25 82.8235 1004.49 82.8235H1001.87H999.232H998.103C998.103 82.8235 998.103 82.4471 998.103 81.6941V79.0588V76.4392V75.2941H999.232H1001.87H1004.49H1005.63C1005.63 75.2941 1005.63 75.6758 1005.63 76.4392V75.2941C1005.63 75.2941 1005.63 74.9176 1005.63 74.1647V71.5294V68.9098V67.7647C1005.63 67.7647 1005.63 67.3882 1005.63 66.6353V64V61.3804V60.2353C1005.63 60.2353 1005.63 59.8588 1005.63 59.1059V56.4706V53.851V52.7059C1005.63 52.7059 1005.63 52.3294 1005.63 51.5765V48.9412V46.3216V45.1765C1005.63 45.1765 1005.63 44.8 1005.63 44.0471V45.1765C1005.63 45.1765 1005.25 45.1765 1004.49 45.1765H1001.87H999.232H998.103ZM983.044 37.647C983.044 37.647 983.044 37.2706 983.044 36.5176V33.8823V31.2627V30.1176H984.174H986.809H989.428H990.574C990.574 30.1176 990.574 30.4993 990.574 31.2627V30.1176H991.703H994.338H996.958H998.103C998.103 30.1176 998.103 30.4993 998.103 31.2627V33.8823V36.5176V37.647C998.103 37.647 997.721 37.647 996.958 37.647H994.338H991.703H990.574C990.574 37.647 990.574 37.2706 990.574 36.5176V37.647C990.574 37.647 990.192 37.647 989.428 37.647H986.809H984.174H983.044ZM1032.03 90.3529C1032.03 90.3529 1032.03 89.9765 1032.03 89.2235V86.5882V83.9686V82.8235H1033.16H1035.79H1038.41H1039.56C1039.56 82.8235 1039.56 83.2052 1039.56 83.9686V82.8235H1040.69H1043.32H1045.94H1047.09C1047.09 82.8235 1047.09 83.2052 1047.09 83.9686V86.5882V89.2235V90.3529C1047.09 90.3529 1046.71 90.3529 1045.94 90.3529H1043.32H1040.69H1039.56C1039.56 90.3529 1039.56 89.9765 1039.56 89.2235V90.3529C1039.56 90.3529 1039.18 90.3529 1038.41 90.3529H1035.79H1033.16H1032.03ZM1024.5 82.8235C1024.5 82.8235 1024.5 82.4471 1024.5 81.6941V79.0588V76.4392V75.2941C1024.5 75.2941 1024.5 74.9176 1024.5 74.1647V71.5294V68.9098V67.7647H1025.63H1028.26H1030.88H1032.03C1032.03 67.7647 1032.03 68.1464 1032.03 68.9098V71.5294V74.1647V75.2941C1032.03 75.2941 1031.65 75.2941 1030.88 75.2941H1032.03C1032.03 75.2941 1032.03 75.6758 1032.03 76.4392V79.0588V81.6941V82.8235C1032.03 82.8235 1031.65 82.8235 1030.88 82.8235H1028.26H1025.63H1024.5ZM1032.03 67.7647C1032.03 67.7647 1032.03 67.3882 1032.03 66.6353V64V61.3804V60.2353H1033.16H1035.79H1038.41H1039.56C1039.56 60.2353 1039.56 60.617 1039.56 61.3804V60.2353H1040.69H1043.32H1045.94H1047.09C1047.09 60.2353 1047.09 60.617 1047.09 61.3804V60.2353H1048.22H1050.85H1053.47H1054.62C1054.62 60.2353 1054.62 60.617 1054.62 61.3804V60.2353C1054.62 60.2353 1054.62 59.8588 1054.62 59.1059V56.4706V53.851V52.7059C1054.62 52.7059 1054.62 52.3294 1054.62 51.5765V48.9412V46.3216V45.1765C1054.62 45.1765 1054.62 44.8 1054.62 44.0471V41.4118V38.7921V37.647H1055.75H1058.38H1061H1062.15C1062.15 37.647 1062.15 38.0287 1062.15 38.7921V41.4118V44.0471V45.1765C1062.15 45.1765 1061.77 45.1765 1061 45.1765H1062.15C1062.15 45.1765 1062.15 45.5582 1062.15 46.3216V48.9412V51.5765V52.7059C1062.15 52.7059 1061.77 52.7059 1061 52.7059H1062.15C1062.15 52.7059 1062.15 53.0876 1062.15 53.851V56.4706V59.1059V60.2353C1062.15 60.2353 1061.77 60.2353 1061 60.2353H1062.15C1062.15 60.2353 1062.15 60.617 1062.15 61.3804V64V66.6353V67.7647C1062.15 67.7647 1061.77 67.7647 1061 67.7647H1062.15C1062.15 67.7647 1062.15 68.1464 1062.15 68.9098V71.5294V74.1647V75.2941C1062.15 75.2941 1061.77 75.2941 1061 75.2941H1062.15C1062.15 75.2941 1062.15 75.6758 1062.15 76.4392V79.0588V81.6941V82.8235C1062.15 82.8235 1061.77 82.8235 1061 82.8235H1062.15C1062.15 82.8235 1062.15 83.2052 1062.15 83.9686V86.5882V89.2235V90.3529C1062.15 90.3529 1061.77 90.3529 1061 90.3529H1058.38H1055.75H1054.62C1054.62 90.3529 1054.62 89.9765 1054.62 89.2235V86.5882V83.9686V82.8235C1054.62 82.8235 1054.62 82.4471 1054.62 81.6941V82.8235C1054.62 82.8235 1054.24 82.8235 1053.47 82.8235H1050.85H1048.22H1047.09C1047.09 82.8235 1047.09 82.4471 1047.09 81.6941V79.0588V76.4392V75.2941H1048.22H1050.85H1053.47H1054.62C1054.62 75.2941 1054.62 75.6758 1054.62 76.4392V75.2941C1054.62 75.2941 1054.62 74.9176 1054.62 74.1647V71.5294V68.9098V67.7647C1054.62 67.7647 1054.62 67.3882 1054.62 66.6353V67.7647C1054.62 67.7647 1054.24 67.7647 1053.47 67.7647H1050.85H1048.22H1047.09C1047.09 67.7647 1047.09 67.3882 1047.09 66.6353V67.7647C1047.09 67.7647 1046.71 67.7647 1045.94 67.7647H1043.32H1040.69H1039.56C1039.56 67.7647 1039.56 67.3882 1039.56 66.6353V67.7647C1039.56 67.7647 1039.18 67.7647 1038.41 67.7647H1035.79H1033.16H1032.03ZM1024.5 45.1765C1024.5 45.1765 1024.5 44.8 1024.5 44.0471V41.4118V38.7921V37.647H1025.63H1028.26H1030.88H1032.03C1032.03 37.647 1032.03 38.0287 1032.03 38.7921V41.4118V44.0471V45.1765C1032.03 45.1765 1031.65 45.1765 1030.88 45.1765H1028.26H1025.63H1024.5ZM1032.03 37.647C1032.03 37.647 1032.03 37.2706 1032.03 36.5176V33.8823V31.2627V30.1176H1033.16H1035.79H1038.41H1039.56C1039.56 30.1176 1039.56 30.4993 1039.56 31.2627V30.1176H1040.69H1043.32H1045.94H1047.09C1047.09 30.1176 1047.09 30.4993 1047.09 31.2627V30.1176H1048.22H1050.85H1053.47H1054.62C1054.62 30.1176 1054.62 30.4993 1054.62 31.2627V33.8823V36.5176V37.647C1054.62 37.647 1054.24 37.647 1053.47 37.647H1050.85H1048.22H1047.09C1047.09 37.647 1047.09 37.2706 1047.09 36.5176V37.647C1047.09 37.647 1046.71 37.647 1045.94 37.647H1043.32H1040.69H1039.56C1039.56 37.647 1039.56 37.2706 1039.56 36.5176V37.647C1039.56 37.647 1039.18 37.647 1038.41 37.647H1035.79H1033.16H1032.03ZM1065.97 112.941C1065.97 112.941 1065.97 112.559 1065.97 111.796V109.176V106.541V105.412H1067.12H1069.74H1072.35H1073.5C1073.5 105.412 1073.5 105.788 1073.5 106.541V105.412H1074.63H1077.26H1079.88H1081.03C1081.03 105.412 1081.03 105.788 1081.03 106.541V105.412H1082.16H1084.79H1087.41H1088.56C1088.56 105.412 1088.56 105.788 1088.56 106.541V109.176V111.796V112.941C1088.56 112.941 1088.18 112.941 1087.41 112.941H1084.79H1082.16H1081.03C1081.03 112.941 1081.03 112.559 1081.03 111.796V112.941C1081.03 112.941 1080.65 112.941 1079.88 112.941H1077.26H1074.63H1073.5C1073.5 112.941 1073.5 112.559 1073.5 111.796V112.941C1073.5 112.941 1073.12 112.941 1072.35 112.941H1069.74H1067.12H1065.97ZM1084.79 105.412C1084.79 105.412 1084.79 105.03 1084.79 104.267V101.647V99.0118V97.8823H1085.92H1088.56H1091.18H1092.32C1092.32 97.8823 1092.32 98.2588 1092.32 99.0118V101.647V104.267V105.412C1092.32 105.412 1091.94 105.412 1091.18 105.412H1088.56H1085.92H1084.79ZM1088.56 97.8823C1088.56 97.8823 1088.56 97.5006 1088.56 96.7372V94.1176V91.4823V90.3529H1089.69H1092.32H1094.94H1096.09C1096.09 90.3529 1096.09 90.7294 1096.09 91.4823V94.1176V96.7372V97.8823C1096.09 97.8823 1095.71 97.8823 1094.94 97.8823H1092.32H1089.69H1088.56ZM1084.79 90.3529C1084.79 90.3529 1084.79 89.9765 1084.79 89.2235V86.5882V83.9686V82.8235H1085.92H1088.56H1091.18H1092.32C1092.32 82.8235 1092.32 83.2052 1092.32 83.9686V82.8235H1093.45H1096.09H1098.71H1099.85C1099.85 82.8235 1099.85 83.2052 1099.85 83.9686V86.5882V89.2235V90.3529C1099.85 90.3529 1099.47 90.3529 1098.71 90.3529H1096.09H1093.45H1092.32C1092.32 90.3529 1092.32 89.9765 1092.32 89.2235V90.3529C1092.32 90.3529 1091.94 90.3529 1091.18 90.3529H1088.56H1085.92H1084.79ZM1081.03 82.8235C1081.03 82.8235 1081.03 82.4471 1081.03 81.6941V79.0588V76.4392V75.2941H1082.16H1084.79H1087.41H1088.56C1088.56 75.2941 1088.56 75.6758 1088.56 76.4392V79.0588V81.6941V82.8235C1088.56 82.8235 1088.18 82.8235 1087.41 82.8235H1084.79H1082.16H1081.03ZM1096.09 82.8235C1096.09 82.8235 1096.09 82.4471 1096.09 81.6941V79.0588V76.4392V75.2941H1097.22H1099.85H1102.47H1103.62C1103.62 75.2941 1103.62 75.6758 1103.62 76.4392V79.0588V81.6941V82.8235C1103.62 82.8235 1103.24 82.8235 1102.47 82.8235H1099.85H1097.22H1096.09ZM1077.26 75.2941C1077.26 75.2941 1077.26 74.9176 1077.26 74.1647V71.5294V68.9098V67.7647H1078.39H1081.03H1083.65H1084.79C1084.79 67.7647 1084.79 68.1464 1084.79 68.9098V71.5294V74.1647V75.2941C1084.79 75.2941 1084.41 75.2941 1083.65 75.2941H1081.03H1078.39H1077.26ZM1099.85 75.2941C1099.85 75.2941 1099.85 74.9176 1099.85 74.1647V71.5294V68.9098V67.7647H1100.98H1103.62H1106.24H1107.38C1107.38 67.7647 1107.38 68.1464 1107.38 68.9098V71.5294V74.1647V75.2941C1107.38 75.2941 1107 75.2941 1106.24 75.2941H1103.62H1100.98H1099.85ZM1073.5 67.7647C1073.5 67.7647 1073.5 67.3882 1073.5 66.6353V64V61.3804V60.2353C1073.5 60.2353 1073.5 59.8588 1073.5 59.1059V56.4706V53.851V52.7059C1073.5 52.7059 1073.5 52.3294 1073.5 51.5765V48.9412V46.3216V45.1765C1073.5 45.1765 1073.5 44.8 1073.5 44.0471V41.4118V38.7921V37.647C1073.5 37.647 1073.5 37.2706 1073.5 36.5176V33.8823V31.2627V30.1176H1074.63H1077.26H1079.88H1081.03C1081.03 30.1176 1081.03 30.4993 1081.03 31.2627V33.8823V36.5176V37.647C1081.03 37.647 1080.65 37.647 1079.88 37.647H1081.03C1081.03 37.647 1081.03 38.0287 1081.03 38.7921V41.4118V44.0471V45.1765C1081.03 45.1765 1080.65 45.1765 1079.88 45.1765H1081.03C1081.03 45.1765 1081.03 45.5582 1081.03 46.3216V48.9412V51.5765V52.7059C1081.03 52.7059 1080.65 52.7059 1079.88 52.7059H1081.03C1081.03 52.7059 1081.03 53.0876 1081.03 53.851V56.4706V59.1059V60.2353C1081.03 60.2353 1080.65 60.2353 1079.88 60.2353H1081.03C1081.03 60.2353 1081.03 60.617 1081.03 61.3804V64V66.6353V67.7647C1081.03 67.7647 1080.65 67.7647 1079.88 67.7647H1077.26H1074.63H1073.5ZM1103.62 67.7647C1103.62 67.7647 1103.62 67.3882 1103.62 66.6353V64V61.3804V60.2353C1103.62 60.2353 1103.62 59.8588 1103.62 59.1059V56.4706V53.851V52.7059C1103.62 52.7059 1103.62 52.3294 1103.62 51.5765V48.9412V46.3216V45.1765C1103.62 45.1765 1103.62 44.8 1103.62 44.0471V41.4118V38.7921V37.647C1103.62 37.647 1103.62 37.2706 1103.62 36.5176V33.8823V31.2627V30.1176H1104.75H1107.38H1110H1111.15C1111.15 30.1176 1111.15 30.4993 1111.15 31.2627V33.8823V36.5176V37.647C1111.15 37.647 1110.77 37.647 1110 37.647H1111.15C1111.15 37.647 1111.15 38.0287 1111.15 38.7921V41.4118V44.0471V45.1765C1111.15 45.1765 1110.77 45.1765 1110 45.1765H1111.15C1111.15 45.1765 1111.15 45.5582 1111.15 46.3216V48.9412V51.5765V52.7059C1111.15 52.7059 1110.77 52.7059 1110 52.7059H1111.15C1111.15 52.7059 1111.15 53.0876 1111.15 53.851V56.4706V59.1059V60.2353C1111.15 60.2353 1110.77 60.2353 1110 60.2353H1111.15C1111.15 60.2353 1111.15 60.617 1111.15 61.3804V64V66.6353V67.7647C1111.15 67.7647 1110.77 67.7647 1110 67.7647H1107.38H1104.75H1103.62ZM1133.68 90.3529C1133.68 90.3529 1133.68 89.9765 1133.68 89.2235V86.5882V83.9686V82.8235C1133.68 82.8235 1133.68 82.4471 1133.68 81.6941V79.0588V76.4392V75.2941H1134.81H1137.45H1140.07H1141.21C1141.21 75.2941 1141.21 75.6758 1141.21 76.4392V79.0588V81.6941V82.8235C1141.21 82.8235 1140.83 82.8235 1140.07 82.8235H1141.21C1141.21 82.8235 1141.21 83.2052 1141.21 83.9686V86.5882V89.2235V90.3529C1141.21 90.3529 1140.83 90.3529 1140.07 90.3529H1137.45H1134.81H1133.68ZM1133.68 67.7647C1133.68 67.7647 1133.68 67.3882 1133.68 66.6353V64V61.3804V60.2353C1133.68 60.2353 1133.68 59.8588 1133.68 59.1059V56.4706V53.851V52.7059H1134.81H1137.45H1140.07H1141.21C1141.21 52.7059 1141.21 53.0876 1141.21 53.851V56.4706V59.1059V60.2353C1141.21 60.2353 1140.83 60.2353 1140.07 60.2353H1141.21C1141.21 60.2353 1141.21 60.617 1141.21 61.3804V64V66.6353V67.7647C1141.21 67.7647 1140.83 67.7647 1140.07 67.7647H1137.45H1134.81H1133.68ZM1141.21 52.7059C1141.21 52.7059 1141.21 52.3294 1141.21 51.5765V48.9412V46.3216V45.1765H1142.34H1144.98H1147.6H1148.74C1148.74 45.1765 1148.74 45.5582 1148.74 46.3216V45.1765H1149.87H1152.51H1155.13H1156.27C1156.27 45.1765 1156.27 45.5582 1156.27 46.3216V48.9412V51.5765V52.7059C1156.27 52.7059 1155.89 52.7059 1155.13 52.7059H1152.51H1149.87H1148.74C1148.74 52.7059 1148.74 52.3294 1148.74 51.5765V52.7059C1148.74 52.7059 1148.36 52.7059 1147.6 52.7059H1144.98H1142.34H1141.21ZM1156.27 45.1765C1156.27 45.1765 1156.27 44.8 1156.27 44.0471V41.4118V38.7921V37.647C1156.27 37.647 1156.27 37.2706 1156.27 36.5176V33.8823V31.2627V30.1176C1156.27 30.1176 1156.27 29.7412 1156.27 28.9882V26.3529V23.7333V22.5882C1156.27 22.5882 1156.27 22.2118 1156.27 21.4588V18.8235V16.2039V15.0588H1157.4H1160.04H1162.66H1163.8C1163.8 15.0588 1163.8 15.4405 1163.8 16.2039V18.8235V21.4588V22.5882C1163.8 22.5882 1163.42 22.5882 1162.66 22.5882H1163.8C1163.8 22.5882 1163.8 22.9699 1163.8 23.7333V26.3529V28.9882V30.1176C1163.8 30.1176 1163.42 30.1176 1162.66 30.1176H1163.8C1163.8 30.1176 1163.8 30.4993 1163.8 31.2627V33.8823V36.5176V37.647C1163.8 37.647 1163.42 37.647 1162.66 37.647H1163.8C1163.8 37.647 1163.8 38.0287 1163.8 38.7921V41.4118V44.0471V45.1765C1163.8 45.1765 1163.42 45.1765 1162.66 45.1765H1160.04H1157.4H1156.27ZM1118.62 37.647C1118.62 37.647 1118.62 37.2706 1118.62 36.5176V33.8823V31.2627V30.1176C1118.62 30.1176 1118.62 29.7412 1118.62 28.9882V26.3529V23.7333V22.5882C1118.62 22.5882 1118.62 22.2118 1118.62 21.4588V18.8235V16.2039V15.0588H1119.75H1122.39H1125.01H1126.15C1126.15 15.0588 1126.15 15.4405 1126.15 16.2039V18.8235V21.4588V22.5882C1126.15 22.5882 1125.77 22.5882 1125.01 22.5882H1126.15C1126.15 22.5882 1126.15 22.9699 1126.15 23.7333V26.3529V28.9882V30.1176C1126.15 30.1176 1125.77 30.1176 1125.01 30.1176H1126.15C1126.15 30.1176 1126.15 30.4993 1126.15 31.2627V33.8823V36.5176V37.647C1126.15 37.647 1125.77 37.647 1125.01 37.647H1122.39H1119.75H1118.62ZM1126.15 15.0588C1126.15 15.0588 1126.15 14.6823 1126.15 13.9294V11.2941V8.6745V7.5294H1127.28H1129.92H1132.54H1133.68C1133.68 7.5294 1133.68 7.9111 1133.68 8.6745V7.5294H1134.81H1137.45H1140.07H1141.21C1141.21 7.5294 1141.21 7.9111 1141.21 8.6745V7.5294H1142.34H1144.98H1147.6H1148.74C1148.74 7.5294 1148.74 7.9111 1148.74 8.6745V7.5294H1149.87H1152.51H1155.13H1156.27C1156.27 7.5294 1156.27 7.9111 1156.27 8.6745V11.2941V13.9294V15.0588C1156.27 15.0588 1155.89 15.0588 1155.13 15.0588H1152.51H1149.87H1148.74C1148.74 15.0588 1148.74 14.6823 1148.74 13.9294V15.0588C1148.74 15.0588 1148.36 15.0588 1147.6 15.0588H1144.98H1142.34H1141.21C1141.21 15.0588 1141.21 14.6823 1141.21 13.9294V15.0588C1141.21 15.0588 1140.83 15.0588 1140.07 15.0588H1137.45H1134.81H1133.68C1133.68 15.0588 1133.68 14.6823 1133.68 13.9294V15.0588C1133.68 15.0588 1133.3 15.0588 1132.54 15.0588H1129.92H1127.28H1126.15Z" fill="#666666"/>
</svg>
